<svg xmlns="http://www.w3.org/2000/svg" fill="none" viewBox="0 0 386 509" height="509" width="386">
<g clip-path="url(#clip0_304_414)">
<path fill="#FDC3C9" d="M47.5218 62.358L65.5485 63.7128L81.5235 66.4224L114.06 94.7271L135.97 102.636L138.242 99.5971L127.506 95.313L128.349 94.9102L139.671 97.693L141.576 95.1299L131.647 91.5781L132.563 91.1753L142.749 93.5554L144.068 91.7978L131.94 85.8292L130.767 85.1701L117.321 77.2976L115.159 76.3089L98.048 56.6092L69.2125 50.4942L54.8864 37.3854L47.8515 30.5381L47.0088 31.5634L54.52 38.5938L53.7872 39.143L52.1384 41.1203L45.1768 34.4927L43.8944 35.7377L50.8926 42.1456L50.1598 42.7314L48.4378 44.9284L41.7327 39.0698L39.974 40.7541L47.3386 48.1873L46.3127 48.7366L44.6639 50.7139L37.7023 44.0863L35.7604 45.6608L44.4807 53.1672L43.7112 53.6066L42.1357 55.6937L33.7819 48.9563L32.5728 51.8124L33.0124 51.5561L47.5951 62.4678L47.5218 62.358ZM91.5261 65.3239L104.387 77.4074L104.02 78.4693L89.0713 65.9098L91.5261 65.3239Z"></path>
<path fill="#FDC3C9" d="M116.478 60.4175L114.316 62.3215L109.846 64.5552L118.053 75.8331L121.204 77.5541L119.995 74.8444L120.362 74.1121L123.513 78.799L128.129 81.3622L122.304 72.7939L116.478 60.4175Z"></path>
<path fill="#FDC3C9" d="M131.903 108.129L133.772 105.639L127.433 102.014L126.993 101.868L129.192 104.797L131.903 108.129Z"></path>
<path fill="#FDC3C9" d="M117.027 120.505L119.629 135.958L130.328 111.132L127.543 107.616L125.638 104.504L122.12 109.337L117.027 120.505Z"></path>
<path fill="#FDC3C9" d="M180.084 63.2734L196.865 55.9501L195.546 55.2178L184.042 59.2822L183.565 60.1976L180.084 63.2734Z"></path>
<path fill="#FDC3C9" d="M139.561 86.7817L145.826 89.4547L152.788 80.154L171.731 66.8988L173.709 66.0566L170.228 67.0453L167.261 67.2284L146.632 80.1174L139.561 86.7817Z"></path>
<path fill="#FDC3C9" d="M142.822 39.3996L141.723 35.4816L138.498 36.3604L137.546 33.0649L133.479 34.6395L135.384 41.7797L142.822 39.3996Z"></path>
<path fill="#FDC3C9" d="M172.024 50.7874L170.851 46.7229L168.067 47.4186L167.224 44.8188L163.194 46.3567L165.135 53.6068L172.024 50.7874Z"></path>
<path fill="#FDC3C9" d="M105.852 180.264L112.008 186.379L112.741 185.17L114.609 187.477L113.986 183.266L113.547 180.666L111.312 180.447L110.615 178.323L108.014 177.957L99.1838 159.795L99.5502 167.155L105.852 180.264Z"></path>
<path fill="#FDC3C9" d="M140.623 281.692L140.55 280.447L153.337 269.682L150.883 237.386L145.46 232.699L144.544 237.935L138.352 242.622H137.253L114.902 242.915L102.372 243.391L93.8711 254.705L91.8925 260.93V266.349L145.606 289.564L140.587 281.728L140.623 281.692ZM125.381 267.411L111.861 262.981L111.641 260.051L126.077 266.716L125.418 267.448L125.381 267.411ZM125.858 263.347L111.422 258.477L111.165 255.255L126.407 262.615L125.821 263.347H125.858ZM125.968 258.77L111.458 253.68L111.202 250.604L126.664 257.928L126.004 258.77H125.968Z"></path>
<path fill="#FDC3C9" d="M157.734 265.947L154.95 239.253L152.238 238.118L155.829 267.595L157.734 265.947Z"></path>
<path fill="#FDC3C9" d="M110.469 226.584L111.605 226.181L116.551 225.485L107.977 218.162L104.423 216.185L104.057 218.967L108.307 223.178L110.469 226.584Z"></path>
<path fill="#FDC3C9" d="M113.107 287.697L116.661 292.824L121.388 295.277L126.664 294.545L129.925 290.736L130.731 289.089L123.732 285.317L123.146 285.757H120.362L118.456 284.365L117.687 282.351L112.521 279.861L111.385 279.458L111.531 281.399L113.107 287.697Z"></path>
<path fill="#FDC3C9" d="M208.077 192.274L212.694 197.401L232.003 198.536L230.757 195.277L214.233 194.142L213.72 192.897L230.611 192.274L231.05 186.232L206.428 189.418L208.077 192.274Z"></path>
<path fill="#FDC3C9" d="M234.934 181.142L235.594 180.74L232.956 185.976L232.992 193.812L236.07 199.89L239.954 203.479L245.12 205.346L241.713 201.758L238.891 191.615L242.922 179.019L245.853 176.236L245.45 176.346L236.656 179.568L236.913 179.165L235.704 179.788L234.934 181.142Z"></path>
<path fill="#FDC3C9" d="M251.898 206.335L246.806 202.49L243.691 202.161L247.795 205.932L251.898 206.335Z"></path>
<path fill="#FDC3C9" d="M278.096 185.244L277.766 189.162L290.004 187.514V188.429L277.546 191.762L277.29 194.947L293.668 190.26L293.814 189.455L293.558 183.962L292.312 182.278L276.41 182.388L278.096 185.244Z"></path>
<path fill="#FDC3C9" d="M281.284 304.577L277.033 329.843L273.04 335.079L265.419 336.397L261.352 335.775V338.338L266.151 346.796L273.772 350.165L283.445 344.306L290.297 329.696L290.92 312.889L287.256 304.76L287.329 304.577L285.314 301.172L282.932 302.82L281.284 304.577Z"></path>
<path fill="#FDC3C9" d="M308.067 256.316L297.661 247.675L279.965 245.148L259.996 244.562L249.957 249.652L238.342 266.313L230.024 290.846L231.856 320.066L265.712 334.237L270.878 333.285L273.516 330.429L276.557 306.445L279.012 302.124L291.616 293.812L292.422 293.153L287.476 276.456L279.635 263.237L267.983 254.632L256.515 252.618L257.578 251.593L268.753 252.728L282.126 260.93L291.543 274.149L294.804 287.55H294.51L295.683 291.175L296.306 290.773L316.384 290.223L323.126 289.308L316.678 271.805L308.104 256.353L308.067 256.316ZM263.696 315.892L267.287 312.999L270.255 315.709L271.647 321.567L269.852 327.572L266.554 329.879L263.257 326.913L261.901 321.531L263.733 315.855L263.696 315.892Z"></path>
<path fill="#FDC3C9" d="M272.82 241.011L284.435 240.535L296.086 241.267C294.364 237.459 290.004 226.474 290.004 226.474L282.896 209.374L280.807 204.431L280.404 203.991L274.725 201.794L267.47 208.019L264.796 208.532L272.966 239.51L272.27 239.4L272.783 241.121L272.82 241.011ZM288.941 232.186L277.473 232.919L276.85 230.209L288.465 230.612L288.978 232.15L288.941 232.186ZM288.099 227.06L276.557 227.792L276.007 225.449L287.622 225.632L288.099 227.06ZM286.193 221.055L286.267 222.043L275.275 222.739L274.615 220.542L286.23 221.055H286.193Z"></path>
<path fill="#FDC3C9" d="M267.727 242.476L268.716 241.158H269.376L261.791 215.709L254.06 213.842L243.654 209.228L246.915 220.433L252.448 242.586L247.209 245.332L244.351 248.188L233.652 203.333L209.14 206.189L208.407 207.91L204.56 218.565L203.387 217.65L202.838 218.675L209.799 252.985L211.815 270.927L214.086 302.454L207.967 313.256L200.31 317.613H207.784L221.524 316.844L224.492 310.729L224.932 307.58L222.074 307.763L224.309 304.504L225.151 306.079L225.298 304.98L226.177 290.407L234.568 263.274L247.905 247.309L261.828 242.329L262.671 243.025L268.093 242.476H267.69H267.727ZM231.563 231.82L219.142 232.992L218.556 230.099L231.307 230.282L231.563 231.857V231.82ZM230.208 225.229L230.574 226.987L218.08 227.719L217.787 225.156L230.244 225.229H230.208ZM217.567 304.724L219.252 307.946L215.149 308.239L217.567 304.761V304.724ZM209.836 314.94L213.83 310.29L215.588 314.537L209.873 314.94H209.836ZM222.367 314.537H217.237L220.938 309.594L222.367 314.537ZM219.875 237.679L219.399 235.152L232.04 235.299L232.369 237.056L219.875 237.679Z"></path>
<path fill="#F07288" d="M329.135 186.379L327.376 175.98L319.609 173.307L293.301 174.991L292.935 175.504L293.631 178.909L295.72 180.191L298.724 184.694L298.871 190.333L295.463 195.679L294.62 195.46L295.17 193.043L290.956 194.398L290.004 196.448L296.636 201.355L301.582 196.192L305.246 191.908L306.455 178.946L307.481 178.14L308.8 179.239L309.459 192.604L305.612 199.707L304.513 201.172L307.701 201.099L311.218 195.863L313.453 190.04L314.516 179.605L315.615 178.946L317.117 179.678L317.85 191.395L316.018 198.096L314.003 200.952L317.264 200.879L320.671 194.215L321.88 189.638L322.1 180.154L323.126 179.678V179.568L324.445 180.337L326.387 189.821L324.299 196.815L323.383 198.902L325.984 198.023L327.816 193.226L329.135 186.379Z"></path>
<path fill="#F07288" d="M296.379 204.76L289.821 198.792L286.78 197.73L285.057 198.609L292.202 206.262L299.017 206.372L304.074 207.067L304.88 204.248L296.379 204.76Z"></path>
<path fill="#F07288" d="M203.094 194.105L199.394 184.438L176.457 183.523L174.222 182.461L160.189 183.999L158.027 189.491L157.881 195.35L159.09 200.44L164.329 202.417L169.422 199.085L170.888 198.938L171.767 195.533L174.662 193.153L177.483 195.716L178.399 199.195L177.593 202.966L175.651 205.053L177.373 207.25L176.75 208.202L172.39 203.369L170.778 203.442L169.386 204.614L174.149 211.644L177.043 213.256L182.063 211.974L184.811 201.941L184.408 191.652L185.434 191.981L186.753 202.6L184.298 212.963L187.156 212.12L190.16 202.527L190.454 191.762H191.186V191.652L192.176 191.981L194.447 203.406L191.736 212.633L195.107 212.487L197.818 202.93L198.038 191.762L198.661 192.018V191.981L199.467 192.164L201.885 203.955L199.504 212.304L201.555 212.194L203.827 203.332L203.094 194.105Z"></path>
<path fill="#F07288" d="M185.91 215.745L183.309 219.37L184.151 220.981L189.647 219.663L196.975 219.517L199.137 215.745H185.91Z"></path>
<path fill="#F07288" d="M155.096 87.4405L140.697 107.982L123.842 142.439L121.058 157.708L127.067 158.989L128.532 148.957H129.522L128.349 181.472L130.767 198.938L132.123 199.561L153.301 198.828L152.238 196.448L151.982 189.491L153.081 184.768L143.774 185.793L144.471 184.475L150.26 183.376L151.982 169.828L158.32 145.039H159.2L158.174 153.351L160.482 150.861L163.194 147.858H165.026L167.627 150.348L165.648 155.218L162.937 159.575L172.463 159.905L183.529 159.319L185.177 159.612L184.738 165.507L182.942 165.8L180.378 177.444L176.714 178.726L198.185 180.117L201.775 181.362L203.644 184.621L229.108 182.864L228.852 183.742L232.992 183.523L234.495 181.436L234.934 181.179L235.667 179.824L236.876 179.202L237.243 178.616L244.57 174.076L258.713 169.938L270.475 172.611L275.018 180.154L276.887 179.568L276.447 178.543L279.342 178.396L285.021 160.271L287.549 136.983L286.779 122.007L282.676 109.594L269.486 110.948L266.884 109.154L259.153 93.0063H256.772L254.317 94.0682L250.653 110.289L248.051 113.951L238.268 116.697L224.858 118.565L225.957 120.322L225.554 121.311L218.666 116.111L213.573 115.159L204.193 115.928V114.72L212.95 111.791L207.235 99.3776L198.807 98.8649L195.913 87.6969L220.901 82.4241L249.444 82.2776L252.411 85.6463L258.274 85.3168L259.556 81.1791L267.214 80.3369L265.748 77.4442L253.401 76.126L225.994 68.4731L213.976 65.5438L204.267 60.1611L166.601 78.5427L155.096 87.5504V87.4405ZM211.265 119.773L215.662 118.711L221.781 121.86L221.231 122.959L216.468 122.153L223.173 129.037L225.261 129.184L250.799 124.021L273.919 122.19H278.242L272.417 115.709L273.369 115.233L282.09 122.19H286.12L286.816 123.471L283.628 133.028L280.587 133.248V136.543H278.792L254.683 135.115L254.243 133.797L278.902 130.575L280.404 125.888L244.68 128.341L224.492 131.637L222.184 131.307L212.181 122.849L207.015 125.485L206.428 124.35L211.265 119.81V119.773ZM162.9 83.193L164.329 89.1981L158.577 87.4405L162.864 83.193H162.9ZM151.762 94.947L154.656 91.7247L157.038 98.7185H149.747L151.762 94.947ZM145.68 106.152L148.061 102.966L149.49 105.602L150.919 109.008L144.287 109.337L145.68 106.152ZM142.016 113.731L143.445 116.441L145.167 119.993H138.278L142.016 113.768V113.731ZM129.009 141.011L130.181 137.935L131.757 134.713L134.505 139.876L128.972 141.011H129.009ZM133.589 130.575L136.886 123.801L140.44 130.062L133.589 130.575ZM140.733 139.729L142.712 135.335L145.387 139.18L140.733 139.729ZM144.874 128.671L147.402 124.57L149.564 128.708H144.874V128.671ZM150.076 117.979L152.605 113.878L154.766 118.015H150.076V117.979ZM156.305 107.36L157.441 105.456L158.833 103.405L160.885 107.25L156.269 107.36H156.305ZM164.659 97.5101L162.681 97.2172L165.099 94.2879L166.638 97.6932L164.659 97.5101ZM179.205 73.7459L181.147 72.9037L181.403 77.3343L176.237 75.6866L179.205 73.7459ZM179.865 81.3622L180.048 85.1337L176.237 83.7056L179.865 81.3988V81.3622ZM168.836 89.784L170.558 88.1729L172.353 86.9645L173.233 90.9557L168.836 89.8206V89.784ZM172.427 77.0414L172.647 82.2776L166.638 80.4834L168.799 78.9821L172.427 77.0048V77.0414Z"></path>
<path fill="#F07288" d="M187.229 300.33L172.83 281.143L170.302 277.371H167.297L168.03 276.712L169.715 276.456L190.27 253.534L186.973 245.185L183.895 236.104L177.593 225.998L178.399 225.119L183.419 231.637L190.82 238.155L197.269 240.864H203.827L200.859 222.153L190.454 221.934L183.455 224.46L181 219.114L183.712 215.745H175.688L172.244 214.244L166.821 204.577L166.198 205.2L163.303 204.944L155.243 201.245L136.923 203.369L128.606 202.087L125.381 182.241H119.116V188.027L121.094 195.533L134.212 211.827L140.55 223.288L151.909 233.321L155.976 234.566L150.809 223.435L151.725 222.849L166.711 242.109L174.808 253.094L176.421 256.317L174.002 256.463L143.518 281.326L149.051 289.052L158.76 297.218L174.222 306.335L187.486 309.557L190.307 309.081L191.186 307.653L187.229 300.33Z"></path>
<path fill="white" d="M154.693 70.5971L145.863 65.7271L141.063 62.1387L139.378 65.7271L150.26 72.428L154.693 70.5971Z"></path>
<path fill="white" d="M243.911 62.3215L245.78 62.7242L245.999 61.699L247.868 52.9842L248.161 51.6294H246.476L246.256 52.5448L244.131 61.2962L243.911 62.3215Z"></path>
<path fill="white" d="M254.353 64.3722L256.552 64.9947L256.588 64.1159L256.991 55.0716L257.028 53.6069H255.416L255.306 54.7054L254.427 63.6399L254.353 64.3722Z"></path>
<path fill="white" d="M114.866 300.183L110.725 297.913L108.197 296.522L105.376 294.984L108.014 298.243L113.327 301.026L114.866 300.183Z"></path>
<path fill="white" d="M310.705 343.208L313.05 329.513L310.632 329.879L308.177 342.146L300.153 357.305L287.292 369.572L286.779 370.048L290.81 371L293.045 368.656L302.241 359.063L310.705 343.208Z"></path>
<path fill="white" d="M310.925 313.219L312.024 322.739L311.292 326.584L313.6 326.328L314.186 322.776L312.574 313.036L310.925 313.219Z"></path>
<path fill="white" d="M310.559 300.989L309.496 301.099L310.632 310.582L312.134 310.472L310.559 300.989Z"></path>
<path fill="white" d="M319.938 300.989L318.839 300.586L319.865 309.74L321.367 309.594L319.938 300.989Z"></path>
<path fill="white" d="M319.719 344.49L322.283 328.159L319.902 328.525L317.227 343.391L309.863 357.306L300.153 367.046L298.907 368.327L301.728 369.023L304.989 365.471L311.768 358.111L319.719 344.49Z"></path>
<path fill="white" d="M320.158 312.34L321.148 321.458L320.415 325.632L322.723 325.412L323.346 321.458L321.807 312.194L320.158 312.34Z"></path>
<path fill="white" d="M144.654 301.575L146.742 295.533L146.083 295.24L143.445 301.099L140.404 305.2L134.468 309.264L133.699 309.814H137.069L138.095 308.971L141.979 305.749L144.654 301.575Z"></path>
<path fill="white" d="M150.333 300.952L151.359 297.62L150.809 297.254L149.234 300.659L146.925 304.541L143.262 308.166L141.979 309.447L144.471 309.044L146.119 307.287L148.391 304.797L150.333 300.952Z"></path>
<path fill="#231F20" d="M316.494 253.607L301.069 242.402L297.442 230.465L287.073 207.433L281.98 202.344L279.745 201.648L281.833 198.719L290.407 208.935L292.239 210.253L299.64 209.337L306.895 210.143L308.58 209.264L309.679 203.881L324.079 203.003L325.288 201.282L328.329 200.806L331.59 193.739L333.165 186.269L331.114 173.416L325.215 169.791L319.132 167.631L294.144 170.414L296.306 165.544L298.358 135.262L293.704 115.928L290.553 107.873L293.998 106.957L296.379 104.064L298.431 88.4291L301.216 87.77L302.168 86.5983L300.996 78.8356L282.969 78.4328L277.107 79.0553L273.443 73.9289L277.51 74.0754L278.609 72.7206L252.705 70.0842L231.747 66.3493L215.039 61.8821L199.65 54.7418V48.9564L216.065 59.026L231.893 63.3101L254.243 67.3746L255.049 66.6422L232.369 61.406L217.567 56.6459L199.54 46.2101L211.558 47.3452L220.059 53.1307L236.436 59.4654L244.058 61.1863L246.183 52.4716L229.072 47.1622L220.498 43.4273L218.776 39.7656L217.933 42.3288L216.065 41.5232L222.367 25.4851L236.29 30.3917L260.655 35.6279L261.535 34.7491L242.995 27.3892L221.597 23.4346L220.242 24.0571L211.302 45.5876L194.74 42.3654L193.311 44.7455L194.301 52.8744L195.437 55.108H195.51L196.829 55.8769L180.011 63.2003L183.492 60.1245L183.968 59.209L186.387 54.5221L185.251 47.9677L181.66 45.3313L174.662 46.8326L172.83 41.5598L169.679 39.9121L164 41.2303L160.592 45.1849L160.336 45.9172L158.064 43.7568L155.133 43.0611L155.719 41.9626L154.583 35.4082L150.993 32.7718L143.994 34.2731L142.162 29.0003L139.011 27.3526L133.332 28.6708L129.925 32.6254L128.349 36.9095L128.825 43.2076L111.275 58.2936L107.391 61.0765L101.712 53.2771L71.4476 45.4778L50.0133 27.6089L49.2805 28.8905L70.385 47.9311L99.8434 55.1812L117.504 77.2977L130.951 85.1703L132.123 85.866L144.251 91.8345L142.932 93.5921L132.746 91.212L131.83 91.6148L141.759 95.1666L139.854 97.7298L128.532 94.9469L127.69 95.3497L138.425 99.6338L136.153 102.673L114.243 94.7638L81.7067 66.4591L65.7318 63.7495L47.705 62.3947L33.1224 51.4829L32.6827 51.7392L32.243 51.9956L45.9829 65.324L65.402 66.0197L80.6808 68.0703L88.1187 74.881L70.5316 88.3193L56.8649 110.399L50.3797 141.23L57.3779 172.025L76.5771 194.837L96.6924 204.907L103.104 212.377L102.335 213.805V219.077L101.199 219.151L90.9766 223.032L80.8273 225.522L77.3832 225.595L76.7237 226.254L76.9069 229.037L91.5262 235.665L101.822 237.312L95.813 243.83L90.6468 250.934L87.8988 264.079H89.0347L92.9917 252.362L97.9381 245.551L99.8067 243.537L102.665 243.427L115.195 242.951L137.546 242.585H138.645L144.837 237.935L145.753 232.699L151.176 237.386L153.631 269.682L140.843 280.447L140.917 281.692L145.936 289.528L92.2223 266.313L89.8407 265.288L88.5583 266.203L102.152 272.684L102.445 274.881L103.434 283.742L97.5717 281.326L97.8282 282.021L103.91 285.72L105.193 289.674L103.178 288.649L91.8193 282.607L91.9292 283.303L98.8908 288.173L105.999 292.237L106.182 292.787L108.564 296.558L111.092 297.95L115.269 300.22L115.745 300.073L110.506 295.46L108.967 292.75L106.402 285.024L106.145 277.518L111.715 279.495L112.851 279.898L118.017 282.388L118.786 284.438L120.691 285.83H123.439L124.026 285.39L131.06 289.162L130.254 290.809L126.993 294.618L121.717 295.35L116.991 292.897L113.437 287.77L111.861 281.472L111.641 280.63L110.909 280.484L111.641 288.576L115.452 295.167L121.241 298.133L128.386 296.741L132.306 291.871L132.892 290.114L139.378 293.592L136.043 300.366L131.573 304.577L122.633 305.127L113.62 301.062L108.271 298.279L98.2679 293.043L84.931 285.024L85.2241 286.013L96.2161 293.849L112.741 303.406L122.01 307.946H122.487L131.683 309.594L134.761 309.337L140.697 305.273L143.738 301.172L146.376 295.313L147.035 295.643L144.984 301.648L142.309 305.859L138.388 309.081L142.089 308.752L143.555 308.276L147.219 304.614L149.527 300.733L151.102 297.364L151.652 297.73L150.663 301.062L148.684 304.87L146.413 307.36L150.37 306.079L153.777 302.014L155.316 299.048L156.379 300.073L172.903 309.887L179.205 311.022L199.357 321.531H208.297L228.229 318.894L228.376 321.018L229.695 323.215L245.89 329.184L246.915 340.571L247.685 342.183L239.587 338.85V340.095L249.187 345.332L250.579 348.298L232.076 341.816L232.479 343.135L253.437 354.376L262.158 359.466L262.707 358.88L256.222 353.168L250.909 339.766L251.202 334.896H255.379L261.681 335.848L265.748 336.47L273.369 335.152L277.363 329.916L281.613 304.65L283.262 302.893L285.644 301.245L296.929 293.409L302.974 305.273L305.356 324.716L303.414 339.51L294.84 355.145L283.262 365.178L273.956 366.386L228.815 346.284L229.145 347.931L273.003 370.158L273.076 370.011V370.158L281.797 370.634L287.622 369.718L300.446 357.452L308.507 342.256L310.962 329.989L313.38 329.623L311.035 343.354L302.571 359.209L293.375 368.803L297.588 368.144L300.519 367.192L310.229 357.452L317.594 343.537L320.268 328.634L322.65 328.268L320.085 344.599L312.134 358.221L305.356 365.581L309.496 364.226L321.331 353.461L326.973 341.121L330.124 321.421L327.706 302.637L322.906 291.798L330.161 291.395L331.26 289.345L328.219 273.307L316.861 253.68L316.494 253.607ZM296.636 81.7283L299.457 81.8381L299.567 82.9L297.771 84.145L295.17 83.6324L295.023 82.7536L296.599 81.7649L296.636 81.7283ZM187.486 309.557L174.259 306.335L158.797 297.217L149.087 289.052L143.555 281.289L174.039 256.426L176.457 256.28L174.808 253.021L166.711 242.073L151.725 222.776L150.773 223.398L155.976 234.53L151.872 233.285L140.514 223.252L134.175 211.791L121.058 195.496L119.079 187.99V182.204H125.345L128.569 202.051L136.886 203.332L155.206 201.208L163.267 204.907L166.161 205.163L166.748 204.541L172.17 214.207L175.614 215.745H183.602L180.891 219.114L183.382 224.46L190.344 221.933L200.786 222.153L203.717 240.864H197.159L190.71 238.191L183.309 231.637L178.289 225.156L177.483 225.998L183.785 236.104L184.408 237.129L193.128 253.717L174.259 276.016H173.013L169.569 276.492L167.883 276.749L167.151 277.408H171.034L174.039 278.396L188.109 296.888L193.898 305.419V307.287L193.238 308.642L190.16 309.154L187.303 309.63L187.486 309.557ZM164.806 244.489L166.308 246.613H157.917L157.661 244.489H164.769H164.806ZM163.377 242.658L163.523 242.732L163.853 243.208L163.34 242.658H163.377ZM167.627 248.517L169.129 250.604H158.394L158.211 249.066L167.627 248.517ZM170.118 251.996L171.694 254.229L169.019 256.5H159.09L158.687 253.058L170.118 252.032V251.996ZM167.554 257.708L159.969 264.116L159.236 258.001L167.554 257.745V257.708ZM226.397 201.392L209.763 203.332L209.14 199.268L226.397 201.392ZM205.109 193.848L205.952 203.698L203.204 212.12L201.555 212.193L199.54 212.267L201.885 203.918L199.467 192.128L198.661 191.981L199.723 203.222L196.682 212.413L195.07 212.486L191.699 212.633L194.411 203.405L192.139 191.981L191.15 191.651V191.761L192.212 202.71L189.244 211.534L187.119 212.12L184.261 212.926L186.716 202.6L185.397 191.981L184.371 191.651L184.738 201.941L181.99 211.937L176.97 213.255L174.076 211.644L169.349 204.614L170.705 203.479L172.317 203.405L176.677 208.239L177.3 207.287L175.578 205.09L177.52 203.003L178.326 199.195L177.446 195.716L174.589 193.189L171.731 195.569L170.815 198.975L169.349 199.121L164.256 202.417L159.053 200.44L157.844 195.35L157.991 189.491L160.152 183.999L174.186 182.461L175.138 182.351L198.148 182.607L200.969 183.413L205.036 193.848H205.109ZM197.012 219.48L189.647 219.663L184.152 220.981L183.345 219.37L185.91 215.745H201.299L199.32 219.444H197.012V219.48ZM182.026 163.64L164.293 166.349L164.036 167.375L180.744 165.947L179.645 169.791L163.23 171.073L162.937 171.988L178.875 172.391L178.143 174.918L162.424 175.87L162.058 176.675L174.515 177.334L169.569 179.605L155.023 182.387L156.269 168.034L157.734 156.316L161.142 153.717L164.476 149.909L165.282 150.604L164 154.486L160.482 160.674L161.838 161.223L172.39 161.699L182.356 161.26L182.026 163.603V163.64ZM193.311 280.776L196.059 280.484L210.386 289.564L210.715 293.153L193.311 280.776ZM210.825 294.142L211.412 300.586L184.261 281.692L189.684 281.143L197.708 286.159L210.825 294.142ZM200.053 280.081L205.146 279.568L209.836 283.376L210.202 287.514L200.017 280.081H200.053ZM178.546 278.763L177.52 277.298L182.539 271.219L197.122 270.194L197.562 269.352L184.298 269.096L187.559 265.141L203.864 264.152L204.303 263.384L189.208 263.127L194.777 256.353L206.319 256.06L208.773 271.11L209.323 277.078L178.582 278.726L178.546 278.763ZM199.65 248.188L204.926 247.638L205.293 249.872L195.253 250.604L193.568 247.675L199.65 248.188ZM196.023 254.815L196.096 254.742L196.536 252.801L196.169 252.142L205.696 252.325L205.842 253.167L206.062 254.522L196.059 254.815H196.023ZM193.641 299.817L190.38 295.386L180.891 282.095L195.07 291.432L211.485 301.611L207.381 309.667L193.678 299.817H193.641ZM243.801 193.189H241.2L240.687 191.175L244.204 179.788L248.234 175.613L253.181 174.332L247.978 178.47L243.288 191.468L243.801 193.189ZM246.842 202.453L251.972 206.262L247.868 205.859L243.764 202.087L246.879 202.453H246.842ZM257.871 206.701L250.14 200.879L246.549 190.919L250.689 178.506L259.373 173.233L269.486 174.295L275.678 185.463L273.699 198.828L266.774 205.419L257.871 206.701ZM305.649 207.214L304.11 206.994L299.09 206.298L292.275 206.225L285.131 198.535L286.853 197.693L289.857 198.755L296.416 204.724L304.916 204.211L306.492 204.101L305.612 207.214H305.649ZM322.613 200.732L322.686 200.586V200.732H322.613ZM294.437 173.416L319.499 171.402L328.879 174.588L330.637 186.891L329.538 193.153L327.23 197.62L326.057 198.023L323.456 198.902L324.372 196.851L326.46 189.821L324.518 180.337L323.163 179.568V179.678L323.602 189.711L321.77 195.899L319.535 200.842H317.3L314.003 200.952L316.018 198.096L317.85 191.395L317.117 179.678L315.578 178.946L315.065 191.029L312.867 196.851L310.266 201.062L307.701 201.135L304.513 201.208L305.612 199.744L309.46 192.64L308.8 179.275L307.481 178.177L306.895 191.615L303.194 197.62L300.3 201.282L296.636 201.355L290.004 196.448L290.993 194.434L295.207 193.043L294.657 195.46L295.5 195.643L298.871 190.333L298.724 184.694L295.72 180.19L293.631 178.909L292.898 175.54L293.265 174.991L294.327 173.453L294.437 173.416ZM277.913 84.5844L282.126 83.9253L282.713 90.736L287.476 86.9645L289.784 89.3812L284.178 94.6906L290.187 99.048L289.344 100.696L288.392 101.794L283.116 98.1692L283.372 103.991L280.477 104.248L279.965 98.6818L275.238 102.746L271.684 99.4874L277.51 94.8737L270.108 90.8092L272.417 86.9279L278.975 91.0655L278.023 84.5478L277.913 84.5844ZM240.98 104.76L239.551 107.58L234.421 104.211L235.154 111.681L231.856 112.01L230.574 103.332L223.796 109.118L221.341 107.03L228.339 100.22L219.509 94.3977L221.341 92.4204L222.403 90.5895L229.438 95.7525L228.302 88.1728L232.772 87.4405L233.542 95.1666L238.232 90.5895L241.529 93.9949L234.714 99.7803L240.98 104.76ZM206.685 91.7979L203.864 92.8598H200.786L200.42 90.7726L202.581 89.967H206.465L206.648 91.8345L206.685 91.7979ZM200.383 57.8542L204.34 60.0512L214.05 65.4339L226.067 68.3632L253.474 76.0161L265.822 77.3343L273.113 78.1032L274.066 79.4947L267.287 80.227L259.629 81.0692L258.347 85.2069L252.485 85.5364L249.517 82.1677L220.974 82.3142L195.986 87.587L198.881 98.755L207.308 99.2677L213.024 111.681L204.303 114.61V115.818L213.647 115.049L218.739 116.001L225.628 121.201L226.031 120.212L224.932 118.455L238.342 116.587L248.125 113.841L250.726 110.179L254.39 93.9583L256.845 92.8964H259.226L266.957 109.044L269.559 110.839L282.749 109.484L285.754 109.191L288.245 108.532L291.689 116.734L295.023 136.873L291.396 164.811L286.047 177.993L279.342 178.323L276.447 178.47L276.887 179.495L277.143 180.117L291.14 180.666L292.275 182.204L293.521 183.889L293.778 189.418L293.631 190.187L277.253 194.91L277.51 191.688L289.931 188.356V187.441L277.729 189.088L278.059 185.17L276.374 182.351L275.018 180.081L270.475 172.538L258.713 169.865L244.571 174.002L237.243 178.543L236.876 179.129L236.62 179.531L245.413 176.309L245.816 176.199L242.885 178.982L238.855 191.615L241.676 201.721L245.083 205.31L239.917 203.442L236.033 199.817L232.956 193.739V185.939L235.557 180.703L234.898 181.106L234.458 181.362L232.956 183.449L231.014 186.196L230.574 192.274L213.683 192.86L214.196 194.105L230.721 195.24L231.966 198.499L212.657 197.4L208.041 192.237L206.392 189.381L205.622 188.026L228.596 184.584L228.852 183.706L229.109 182.827L203.644 184.584L201.775 181.326L198.185 180.081L176.714 178.689L180.378 177.408L182.942 165.764L184.738 165.471L185.177 159.575L183.529 159.282L172.463 159.868L162.937 159.539L165.648 155.181L167.627 150.311L165.026 147.821H163.194L160.482 150.824L158.174 153.314L159.2 145.002H158.32L151.982 169.791L150.26 183.34L144.471 184.438L143.774 185.756L153.081 184.731L151.982 189.455L152.238 196.412L153.301 198.792L132.123 199.524L130.767 198.902L128.349 181.435L129.522 148.956H128.532L127.067 158.953L121.058 157.671L123.842 142.402L124.502 138.777L136.373 110.179L153.777 83.1197L173.416 69.6448L200.31 57.8542H200.383ZM198.441 48.224L198.771 54.3757L197.378 53.7532L196.389 47.0157L198.404 48.2607L198.441 48.224ZM167.297 44.7821L168.14 47.3819L170.925 46.6861L172.097 50.7506L165.209 53.5701L163.23 46.32L167.261 44.7821H167.297ZM137.619 33.0281L138.572 36.3236L141.759 35.4448L142.858 39.3994L135.457 41.7795L133.515 34.6393L137.582 33.0648L137.619 33.0281ZM128.972 45.5876L129.045 46.4298L132.453 54.8517L139.561 54.4123L147.805 52.0322L152.898 47.5649L154.253 44.9286L157.185 45.6609L159.676 47.9677L159.09 49.5056L159.786 59.0626L163.194 67.4844L167.297 67.2281L170.302 67.045L173.782 66.0564L171.804 66.9352L152.861 80.1904L145.936 89.491L139.671 86.818L133.002 83.9619L130.438 82.5705L124.722 72.9037L117.76 56.6825L128.972 45.6243V45.5876ZM123.586 78.799L120.472 74.112L120.105 74.8444L121.314 77.5174L118.163 75.7964L109.956 64.5551L109.26 63.603L114.206 60.1611L115.745 58.6232L116.588 60.3808L122.413 72.7572L128.276 81.3255L123.623 78.799H123.586ZM127.543 102.014L133.845 105.602L131.976 108.092L129.302 104.76L127.103 101.867L127.543 102.014ZM101.602 234.786L91.5628 233.504L78.3725 227.939L78.5557 227.06L81.1571 226.987L90.9766 225.009L101.968 221.494L103.947 221.787L107.135 224.753L109.04 227.06L106.219 228.012L106.365 228.744L115.928 228.012L123.733 228.744L124.099 227.902L105.449 210.656L91.1231 196.412L90.5369 197.803L92.0025 199.487L77.3466 193.226L61.1518 170.926L54.117 141.523L59.1366 111.241L73.7559 89.8938L85.9569 80.1172L96.5825 84.8773L112.741 97.4735L123.439 100.732L125.748 104.467L127.653 107.58L130.401 111.095L119.702 135.884L117.101 120.432L117.027 119.956L116.002 119.81L116.441 150.861L117.577 160.893L126.81 161.077L125.968 166.716L124.905 171.11L122.633 176.272L109.919 175.357L100.979 154.632L91.8559 126.767L91.0865 126.547L97.9381 157.012L99.2572 159.722L108.087 177.884L110.689 178.25L111.385 180.374L113.62 180.63L114.06 183.23L114.683 187.441L112.814 185.134L112.081 186.342L132.16 213.731L142.236 233.321L140.623 236.946L137.839 239.107L121.864 238.155L101.529 234.823L101.602 234.786ZM104.167 218.968L104.497 216.185L108.051 218.199L116.624 225.522L111.678 226.218L110.542 226.62L108.417 223.215L104.167 219.004V218.968ZM152.348 238.155L155.06 239.253L157.844 265.983L155.902 267.594L152.312 238.155H152.348ZM188.475 312.486L195.034 311.681L196.572 308.642L196.756 304.065L197.891 304.724L206.941 310.619L206.868 310.729L201.958 314.024L195.583 315.672L188.512 312.486H188.475ZM310.705 310.619L309.606 301.099L310.632 300.989L312.208 310.473L310.705 310.619ZM313.673 326.364L311.365 326.584L312.134 322.776L311.035 313.219L312.684 313.072L314.333 322.812L313.71 326.364H313.673ZM319.939 309.777L318.913 300.623L319.975 301.025L321.404 309.63L319.902 309.777H319.939ZM323.419 321.494L322.796 325.449L320.488 325.668L321.221 321.494L320.195 312.377L321.844 312.23L323.383 321.494H323.419ZM323.163 289.308L316.421 290.224L296.342 290.773L295.72 291.176L291.689 293.849L279.085 302.161L276.63 306.481L273.589 330.465L270.951 333.321L265.785 334.273L231.93 320.103L230.098 290.883L238.415 266.349L250.03 249.689L260.069 244.599L262.854 243.171L262.744 243.098L261.901 242.402L247.978 247.382L234.641 263.347L226.251 290.48L225.371 305.053L225.225 306.152L224.382 304.577L222.147 307.836L225.005 307.653L224.565 310.802L221.597 316.917L207.857 317.686H200.383L208.041 313.329L214.159 302.527L211.888 271L209.873 253.058L202.911 218.748L203.461 217.723L204.633 218.638L208.48 207.983L209.213 206.262L233.725 203.405L244.424 248.261L247.282 245.405L252.521 242.658L246.989 220.505L243.728 209.301L254.133 213.914L261.864 215.782L264.429 216.404L271.611 239.217L272.38 239.326L273.076 239.436L264.906 208.459L267.58 207.946L274.835 201.721L280.514 203.918L280.917 204.357L284.728 208.642L295.573 231.564L299.2 241.414L296.159 241.23L284.508 240.498L272.893 240.974L269.449 241.121H268.789L267.8 242.475H268.203L285.241 243.244L299.127 244.856L313.453 255.841L324.299 274.369L329.208 288.429L323.163 289.272V289.308Z"></path>
<path fill="#231F20" d="M289.088 275.431L294.144 287.661L294.474 287.587L294.767 287.551L291.543 274.149L282.09 260.894L268.716 252.728L257.541 251.557L256.478 252.582L267.947 254.632L279.598 263.201L279.855 263.384L289.088 275.431Z"></path>
<path fill="#231F20" d="M275.018 68.29L261.681 66.6789L261.828 67.8872L279.488 70.78L280.551 69.3519L273.589 64.665L265.638 60.1245L265.455 61.5159L271.831 66.0198L275.018 68.29Z"></path>
<path fill="#231F20" d="M290.92 312.89L290.297 329.697L283.445 344.307L273.772 350.165L266.151 346.797L261.351 338.338L260.655 338.558L264.173 348.078L273.772 353.204L286.267 346.54L293.448 330.246V312.56L287.769 303.772L287.329 304.578L287.256 304.761L290.92 312.89Z"></path>
<path fill="#231F20" d="M178.106 20.8349L191.773 26.9865L199.101 41.5965H200.31L193.971 25.0092L189.538 22.8122L193.238 15.1227L190.783 5.60235L184.958 2.59978L162.791 0L160.739 4.54047L160.409 8.09228L184.335 7.76273L186.863 9.19078L189.208 14.7199L186.936 21.5306L178.985 17.6126L161.508 17.9422L144.361 29.7693V31.7833L163.303 20.3222L178.106 20.8349Z"></path>
<path fill="#231F20" d="M366.434 124.9L363.137 128.671L355.296 138.082L346.282 122.849L319.169 121.97L299.823 123.032L300.446 126.474L319.206 125.815H344.377L353.097 139.546L355.442 142.146L366.398 128.964L372.37 137.752L381.127 151.959L382.226 151.776L375.081 137.459L366.434 124.9Z"></path>
<path fill="#231F20" d="M358.007 75.0277L329.904 74.1489L313.233 74.9545L312.574 76.4924L313.563 77.9937H329.868L357.164 78.0669L385.597 76.4924L386 75.101L358.007 75.0277Z"></path>
<path fill="#231F20" d="M273.846 52.5813L273.223 53.8995L274.359 55.4008H314.736L360.352 52.0687L360.682 50.9336L314.662 51.5927L273.846 52.5813Z"></path>
<path fill="#231F20" d="M272.527 34.383L273.223 35.1519L306.895 25.4485L345.55 14.2804L345.916 12.2299L337.086 10.1428L320.928 7.61621L315.175 13.0721L302.058 10.0329L292.532 20.3588L281.613 19.1505L273.369 29.8425L274.505 30.0256L282.639 22.0432L294.034 23.5445L303.414 14.2072L316.384 16.0747L322.027 10.8019L340.823 13.5847L305.905 22.8854L272.527 34.383Z"></path>
<path fill="#231F20" d="M254.427 63.6398L255.306 54.7054L247.868 52.9844L245.999 61.6991L254.427 63.6398Z"></path>
<path fill="#231F20" d="M257.688 64.3721H264.356L261.901 36.2871L260.875 36.7631L261.095 55.9869L256.991 55.0715L256.588 64.1158L257.688 64.3721Z"></path>
<path fill="#231F20" d="M212.181 122.775L222.147 131.271L224.492 131.6L244.68 128.305L251.898 127.133L284.068 123.581L281.247 130.245L278.939 130.538L254.28 133.724L254.72 135.079L278.829 136.507H280.551L280.587 133.211L283.628 132.955L286.816 123.398L286.12 122.153H282.09L273.369 115.159L272.417 115.672L278.242 122.153H273.919L250.799 123.984L225.261 129.147L223.173 129.037L216.468 122.153L221.231 122.959L221.781 121.897L215.662 118.711L211.265 119.773L206.392 124.313L207.015 125.412L212.181 122.775Z"></path>
<path fill="#231F20" d="M35.7238 45.5879L34.3315 47.7849L43.6746 53.5337L44.4441 53.0943L35.7238 45.5879Z"></path>
<path fill="#231F20" d="M39.974 40.6812L38.4718 43.0246L46.276 48.7002L47.302 48.151L39.974 40.6812Z"></path>
<path fill="#231F20" d="M43.8944 35.7378L43.7845 35.6279L43.528 36.1039L42.5754 37.8982L50.1598 42.6949L50.8926 42.1091L43.8944 35.7378Z"></path>
<path fill="#231F20" d="M47.0455 31.5635L46.9722 31.5269L45.7997 33.6872L53.8238 39.1797L54.5566 38.6305L47.0455 31.5635Z"></path>
<path fill="#231F20" d="M104.387 77.4077L91.5261 65.3242L89.0346 65.8735L104.02 78.433L104.387 77.4077Z"></path>
<path fill="#231F20" d="M230.574 226.987L230.208 225.229L217.75 225.156L218.08 227.719L230.574 226.987Z"></path>
<path fill="#231F20" d="M219.106 232.992L231.563 231.82L231.27 230.246L218.52 230.062L219.106 232.992Z"></path>
<path fill="#231F20" d="M219.362 235.116L219.875 237.642L232.369 237.056L232.003 235.299L219.362 235.116Z"></path>
<path fill="#231F20" d="M286.267 222.043L286.193 221.055L274.578 220.542L275.275 222.739L286.267 222.043Z"></path>
<path fill="#231F20" d="M276.557 227.792L288.099 227.023L287.622 225.595L276.007 225.449L276.557 227.792Z"></path>
<path fill="#231F20" d="M277.473 232.919L288.941 232.15L288.465 230.612L276.85 230.209L277.473 232.919Z"></path>
<path fill="#231F20" d="M18.2466 275.98L16.5245 277.262L17.0375 278.946L191.186 366.789L191.04 365.361L18.2466 275.98Z"></path>
<path fill="#231F20" d="M0 292.018L0.439677 294.618L129.302 363.42V362.176L2.27167 291.249L0 292.018Z"></path>
<path fill="#231F20" d="M111.422 253.68L125.968 258.77L126.627 257.928L111.165 250.604L111.422 253.68Z"></path>
<path fill="#231F20" d="M111.422 258.477L125.858 263.347L126.444 262.615L111.165 255.255L111.422 258.477Z"></path>
<path fill="#231F20" d="M111.825 262.981L125.381 267.412L126.041 266.679L111.605 260.052L111.825 262.981Z"></path>
<path fill="#231F20" d="M148.244 76.712L158.577 70.4139L156.782 68.6563L151.835 62.1385L150.333 61.2597L146.925 61.4428L144.251 57.9276L141.32 57.0854L139.524 57.4882L138.608 60.1246L139.341 61.2964L137.912 65.3974L136.85 64.6651L135.457 66.2396L134.651 69.2056L140.733 73.7094L148.244 76.6754V76.712ZM141.063 62.1385L145.9 65.727L154.693 70.597L150.26 72.4278L139.378 65.727L141.026 62.1385H141.063Z"></path>
<path fill="#231F20" d="M209.836 314.903L215.552 314.5L213.793 310.253L209.836 314.903Z"></path>
<path fill="#231F20" d="M217.567 304.687L215.185 308.202L219.289 307.909L217.567 304.687Z"></path>
<path fill="#231F20" d="M217.237 314.5H222.367L220.938 309.557L217.237 314.5Z"></path>
<path fill="#231F20" d="M220.315 37.7886L224.565 37.3126L223.173 35.4451L221.89 33.7607L220.315 37.7886Z"></path>
<path fill="#231F20" d="M226.251 31.9663L223.942 28.1582L222.44 32.5888L224.345 32.3325L226.251 31.9663Z"></path>
<path fill="#231F20" d="M227.973 34.0537L226.837 36.7267H229.585L227.973 34.0537Z"></path>
<path fill="#231F20" d="M225.225 40.6812L224.052 43.5739H227.277L225.225 40.6812Z"></path>
<path fill="#231F20" d="M266.554 329.916L269.852 327.609L271.647 321.604L270.255 315.709L267.287 312.999L263.696 315.892L261.865 321.567L263.22 326.95L266.554 329.916Z"></path>
<path fill="#231F20" d="M130.181 137.899L128.972 140.974L134.505 139.839L131.757 134.676L130.181 137.899Z"></path>
<path fill="#231F20" d="M133.552 130.538L140.404 130.026L136.85 123.764L133.552 130.538Z"></path>
<path fill="#231F20" d="M145.167 119.956L143.445 116.404L141.979 113.731L138.242 119.956H142.602H145.167Z"></path>
<path fill="#231F20" d="M149.49 105.566L148.025 102.966L145.68 106.151L144.287 109.337L150.919 109.008L149.49 105.566Z"></path>
<path fill="#231F20" d="M154.62 91.688L151.762 94.9469L149.747 98.7184H157.001L154.62 91.688Z"></path>
<path fill="#231F20" d="M162.864 83.1929L158.577 87.4404L164.329 89.198L162.864 83.1929Z"></path>
<path fill="#231F20" d="M172.61 82.2777L172.39 77.0415L168.763 78.9822L166.601 80.4835L172.61 82.2777Z"></path>
<path fill="#231F20" d="M181.11 72.9038L179.169 73.746L176.201 75.6867L181.367 77.3344L181.11 72.9038Z"></path>
<path fill="#231F20" d="M179.828 81.3623L176.201 83.6692L180.011 85.1338L179.828 81.3623Z"></path>
<path fill="#231F20" d="M170.485 88.1361L168.799 89.7838L173.16 90.919L172.28 86.9277L170.485 88.1361Z"></path>
<path fill="#231F20" d="M162.644 97.2174L164.622 97.5103L166.601 97.6934L165.062 94.2881L162.644 97.2174Z"></path>
<path fill="#231F20" d="M157.404 105.456L156.269 107.36L160.885 107.213L158.833 103.405L157.404 105.456Z"></path>
<path fill="#231F20" d="M150.04 117.979L154.73 118.016L152.568 113.878L150.04 117.979Z"></path>
<path fill="#231F20" d="M144.837 128.671L149.527 128.708L147.365 124.57L144.837 128.671Z"></path>
<path fill="#231F20" d="M140.697 139.692L145.35 139.143L142.675 135.298L140.697 139.692Z"></path>
<path fill="#231F20" d="M81.5235 190.443L83.4288 193.153L85.5539 187.917L79.7281 187.331L81.5235 190.443Z"></path>
<path fill="#231F20" d="M73.4627 177.005L77.2733 183.523L80.6441 177.554L73.4627 177.005Z"></path>
<path fill="#231F20" d="M74.9283 167.997L71.0445 167.448L68.0034 167.155L71.0812 173.746L73.4994 170.158L74.9283 167.997Z"></path>
<path fill="#231F20" d="M65.402 156.426L62.3975 156.133L63.7165 159.868L65.6218 162.798L69.0293 157.122L65.402 156.426Z"></path>
<path fill="#231F20" d="M61.2251 142.439L61.2983 146.796L62.3609 150.934L67.7103 145.991L61.2251 142.439Z"></path>
<path fill="#231F20" d="M61.5182 130.612L61.2617 136.654L66.6477 134.054L61.5182 130.612Z"></path>
<path fill="#231F20" d="M63.9364 118.931L62.9838 123.545V125.815L68.0401 123.362L63.9364 118.931Z"></path>
<path fill="#231F20" d="M67.637 107.982L66.4646 110.582L65.5852 113.988L70.8247 112.669L67.637 107.982Z"></path>
<path fill="#231F20" d="M72.9131 116.441L72.2536 120.579L76.0275 119.077L72.9131 116.441Z"></path>
<path fill="#231F20" d="M70.2384 131.454L74.2322 129.33L70.898 126.987L70.4216 129.111L70.2384 131.454Z"></path>
<path fill="#231F20" d="M70.6049 137.605L70.8247 141.926L72.73 140.645L74.5253 139.29L70.6049 137.605Z"></path>
<path fill="#231F20" d="M72.2903 150.897L72.7299 153.058L76.0642 149.872L71.9239 148.444L72.2903 150.897Z"></path>
<path fill="#231F20" d="M75.7344 163.384L78.3725 159.502L73.7192 158.99L75.7344 163.384Z"></path>
<path fill="#231F20" d="M81.5601 173.966L84.1982 170.084L79.545 169.572L81.5601 173.966Z"></path>
<path fill="#231F20" d="M87.3126 183.303L89.4377 179.129L84.7478 179.202L87.3126 183.303Z"></path>
<path fill="#231F20" d="M92.4422 189.894L93.9444 186.159L89.9507 186.599L92.4422 189.894Z"></path>
<path fill="#231F20" d="M80.4243 156.133L83.2456 152.508L78.9954 151.666L79.6549 154.046L80.4243 156.133Z"></path>
<path fill="#231F20" d="M83.3921 164.043L84.2348 165.764L86.3233 162.432L82.6227 162.065L83.3921 164.043Z"></path>
<path fill="#231F20" d="M383.802 160.747L353.061 158.99L313.087 158.66L312.244 160.235L313.673 161.809L343.571 161.37L383.802 161.809V160.747Z"></path>
<path fill="#231F20" d="M364.053 167.704L363.906 167.228L339.504 166.459H329.025L328.439 167.448L329.245 168.656L343.022 168.4L364.053 167.704Z"></path>
<path fill="#231F20" d="M356.615 190.809L379.075 191.029L378.965 190.516L352.951 188.576L341.776 188.1L341.043 189.125L341.886 190.443L356.615 190.809Z"></path>
<path fill="#231F20" d="M306.418 218.528L305.246 219.883L306.272 221.714L334.888 228.049L385.011 239.51L385.597 238.558L345.33 227.573L306.418 218.528Z"></path>
<path fill="#231F20" d="M308.214 233.578L307.261 234.383L307.701 235.884L333.532 243.647L369.952 252.911V252.399L337.929 242.475L308.214 233.578Z"></path>
<path fill="#231F20" d="M86.8363 210.363L86.36 208.898L72.1437 205.017L50.3797 199.415V199.927L75.1848 208.056L85.9203 211.205L86.8363 210.363Z"></path>
<path fill="#231F20" d="M57.671 207.287L57.6344 207.8L75.6978 214.098L83.5753 216.441L84.3448 215.562L84.0516 214.208L73.646 211.352L57.671 207.287Z"></path>
<path fill="#231F20" d="M41.293 228.817L76.9802 242.549L87.4225 246.576L88.7782 245.185L88.1187 243.061L74.3055 238.228L41.3663 228.268L41.293 228.817Z"></path>
<path fill="#231F20" d="M85.6638 254.742L85.4806 253.351L75.2947 249.762L48.5477 241.194L48.4744 241.67L77.1634 252.655L84.8211 255.548L85.6638 254.742Z"></path>
<path fill="#231F20" d="M214.966 350.934L225.408 355.987L222.367 349.14L214.966 350.934Z"></path>
<path fill="#231F20" d="M202.142 345.259L209.836 348.884L207.125 343.574L202.142 345.259Z"></path>
<path fill="#231F20" d="M189.794 339.766L195.693 342.659L193.788 338.777L189.794 339.766Z"></path>
<path fill="#231F20" d="M107.867 310.472L114.316 313.695L112.228 309.154L107.867 310.472Z"></path>
<path fill="#231F20" d="M84.1616 295.094L82.3296 289.711L76.1375 291.249L84.1616 295.094Z"></path>
<path fill="#231F20" d="M72.2536 289.711L70.8247 285.939L66.9409 286.928L72.2536 289.711Z"></path>
<path fill="#231F20" d="M222.147 11.4245L222.33 12.0836L232.992 9.66688L248.528 5.34612L248.894 4.50393L238.818 0.695801L233.762 4.24762L228.779 3.3322L223.686 9.2641L224.565 9.59365L229.585 5.05318L234.275 6.07845L239.514 2.56325L247.062 4.79687L229.658 8.8247L222.147 11.4245Z"></path>
<path fill="#231F20" d="M83.9051 21.3108L93.1017 24.3134L99.3304 17.9055L103.397 18.9674L109.333 21.201L91.9292 26.2175L77.2366 30.4284L78.4091 31.0142L94.5673 27.9751L111.751 22.153V20.5053L105.156 17.2464L98.0847 15.4888L92.3322 21.3841L83.502 18.4181L79.6549 22.8121L75.368 28.8539L75.8077 29.5496L83.9051 21.3108Z"></path>
<path fill="#231F20" d="M266.335 181.289L267.067 178.946L261.864 185.866L253.914 197.913L254.207 199.231L261.864 190.443L266.335 181.289Z"></path>
<path fill="#231F20" d="M269.009 189.052L261.865 198.975L265.419 196.229L269.009 190.333V189.052Z"></path>
</g>
<path fill="black" d="M214.718 391.572C200.885 410.543 198.301 430.588 206.904 446.983C207.754 448.612 211.617 446.692 210.766 445.063C202.663 429.642 205.136 410.502 218.12 392.669C219.493 390.802 216.088 389.689 214.718 391.572Z"></path>
<path fill="black" d="M214.771 437.802C214.926 443.036 214.627 448.34 213.883 453.649C213.845 453.91 213.493 454.952 213.705 455.12L214.37 454.675C214.37 454.675 214.231 454.611 214.157 454.612C214.051 454.476 213.592 454.422 213.403 454.353C212.048 453.852 210.711 453.325 209.356 452.824C206.557 451.764 203.731 450.692 200.933 449.633C199.929 449.258 198.659 449.547 197.964 450.501C197.349 451.369 197.539 452.607 198.547 453.001C201.831 454.231 205.097 455.488 208.381 456.719C209.82 457.258 211.313 458.031 212.891 458.321C214.78 458.666 216.868 457.846 217.616 456.063C218.205 454.659 218.212 452.988 218.375 451.563C218.567 450.046 218.707 448.524 218.82 446.988C219.05 443.833 219.109 440.686 219.024 437.56C218.991 436.568 218.281 435.753 217.058 435.819C216.006 435.876 214.738 436.81 214.771 437.802Z"></path>
<path fill="black" d="M133.732 506.169C133.666 505.233 134.136 503.883 135.213 498.445C135.667 496.203 136.125 494.007 136.435 491.727C136.914 489.154 137.383 488.462 139.566 488.074C142.027 487.619 143.559 487.324 144.668 487.716C145.347 487.998 145.704 488.396 145.796 489.048C145.889 489.7 145.644 490.235 145.015 490.655C144.296 491.129 142.748 491.191 141.25 491.296C140.458 491.398 139.972 491.856 139.838 492.618L139.322 495.994C139.194 496.849 139.815 496.994 140.617 497.032C141.881 496.943 143.015 497.005 143.237 498.165C143.39 499.001 143.105 499.633 142.335 500.063C141.696 500.343 140.078 500.739 139.476 500.875C138.506 501.131 137.98 501.685 137.809 502.591C137.727 503.443 137.128 506.308 136.927 506.792C136.642 507.424 136.15 507.787 135.495 507.833C134.371 507.912 133.814 507.34 133.732 506.169ZM154.288 505.246C152.481 506.313 150.469 505.796 149.358 504.039C147.788 501.092 148.022 495.713 148.715 492.184C148.941 490.71 149.781 489.945 150.784 490.157C152.362 490.517 152.219 491.844 152.003 493.458C151.455 496.366 151.31 501.691 152.715 501.593C153.791 501.518 154.908 498.664 156.031 493.881C156.401 492.444 156.727 491.057 157.05 489.624C157.369 488.143 158.035 487.579 159.275 487.821C160.278 488.033 160.725 489.037 160.395 490.377C159.649 493.816 158.899 497.208 157.671 500.493C156.876 502.571 155.553 504.499 154.288 505.246ZM175.96 505.561C174.375 505.766 173.752 504.258 173.09 502.187C172.267 499.846 171.447 497.552 170.715 495.157C170.359 494.1 170.129 493.505 169.567 493.544C168.303 493.633 167.297 501.417 167.338 503.343C167.289 504.664 166.774 505.358 165.841 505.471C165.095 505.57 164.56 505.325 164.133 504.603C163.333 503.248 164.076 499.762 164.783 496.42C165.6 492.646 166.575 486.416 168.681 486.268C170.279 486.25 170.966 487.331 171.987 489.141C172.697 490.549 174.08 494.169 174.543 495.406C174.946 496.46 175.886 495.782 176.202 494.255C176.979 491.237 177.761 488.971 179.425 484.527C179.844 483.792 180.573 483.459 181.295 483.691C182.966 484.044 182.79 485.561 182.236 487.058C180.435 491.559 179.007 496.692 177.597 504.082C177.285 504.998 176.753 505.458 175.96 505.561ZM205.411 502.885C204.686 502.607 204.249 501.743 204.428 500.931C204.599 500.025 205.942 495.698 208.249 488.339C208.377 487.484 207.742 487.152 206.666 487.227C205.031 487.389 203.91 487.515 203.162 487.567C201.109 487.805 199.985 487.884 199.683 486.259C199.507 485.095 200.532 484.271 202.404 484.139L210.876 483.545C218.88 482.984 220.044 482.809 220.822 483.177C221.457 483.509 221.831 484.142 221.74 484.854C221.625 485.896 220.899 486.277 219.12 486.401C217.482 486.516 215.796 486.634 214.108 486.706C212.981 486.738 212.269 487.305 211.923 488.411C211.476 490.089 210.932 491.726 210.388 493.364C208.921 497.935 207.864 501.631 207.515 502.032C207.053 502.817 206.227 503.11 205.411 502.885ZM223.465 500.349C222.84 500.158 222.476 499.666 222.38 498.967C222.298 497.797 223.606 494.319 224.238 491.922C225.547 487.785 225.932 485.218 226.268 483.972C226.641 482.581 227.307 482.017 228.212 482.189C229.499 482.428 229.855 483.485 229.448 485.724C228.53 490.069 227.233 494.394 225.887 498.674C225.411 499.931 224.668 500.735 223.465 500.349ZM246.765 500.033C245.859 499.861 245.492 499.323 245.423 498.34C245.358 496.745 246.151 493.961 246.939 489.766C247.077 489.051 246.215 488.829 245.833 489.421C245.407 490.062 243.943 492.658 243.545 493.015C242.456 494.267 240.939 494.091 240.266 492.539C239.775 491.586 239.336 487.995 238.259 488.07C237.37 488.132 236.226 493.293 235.814 496.144C235.595 497.712 234.802 498.473 233.709 498.314C232.897 498.136 232.276 497.333 232.307 496.437C232.311 495.825 232.416 495.3 232.517 494.729C233.3 491.146 235.092 483.823 236.147 482.103C236.958 480.917 238.309 480.729 239.367 481.736C240.316 482.517 241.002 484.256 241.882 486.076C242.379 487.123 242.897 487.133 243.58 486.145L245.332 483.623C247.771 480.159 249.029 479.319 250.435 479.926C251.789 480.442 252.024 481.79 251.475 484.698C250.394 490.747 248.987 498.184 248.712 498.956C248.346 499.781 247.62 500.161 246.765 500.033ZM256.418 499.827C255.406 499.474 254.885 498.758 254.813 497.728C254.724 496.465 256.347 490.753 257.233 487.963C258.64 483.208 259.13 481.48 259.573 480.414C260.022 479.442 260.738 478.921 261.768 478.849C263.126 478.754 268.923 478.253 269.629 478.251C270.428 478.242 271.136 478.945 271.198 479.834C271.204 480.586 270.685 481.234 269.902 481.477C269.487 481.6 265.518 482.02 264.208 482.112C263.034 482.147 262.365 482.664 262.163 483.807C262.055 484.285 261.592 485.729 261.478 486.113C261.296 486.878 261.663 487.417 262.462 487.408C265.103 487.505 266.748 487.484 266.371 489.486C266.28 490.198 265.748 490.659 265.096 490.751C263.935 490.974 260.626 490.736 259.97 491.44C259.665 491.791 258.996 494.331 258.828 495.283C258.536 496.48 259.9 496.478 261.023 496.399L264.58 496.15C266.031 496.048 266.87 496.601 266.939 497.584C266.964 498.617 266.171 499.378 264.867 499.564C262.302 499.885 257.284 500.095 256.418 499.827ZM278.739 497.039C276.445 497.2 273.759 495.789 273.641 494.104C273.582 493.261 274.138 492.47 274.98 492.41C276.187 492.185 277.225 493.57 278.91 493.452C280.268 493.357 281.487 491.954 281.414 490.925C281.289 489.804 279.909 488.913 278.292 487.992C276.428 486.9 274.992 485.871 274.877 484.233C274.654 481.05 279.068 478.248 282.625 477.998C284.491 477.773 286.278 478.448 286.37 479.758C286.492 481.49 284.984 481.455 283.486 481.56C282.172 481.605 280.928 481.974 279.754 482.668C278.583 483.409 278.582 484.067 279.711 484.741C282.811 486.687 284.705 487.542 284.932 490.772C285.155 493.955 282.202 496.796 278.739 497.039Z"></path>
<defs>
<clipPath id="clip0_304_414">
<rect fill="white" height="371" width="386"></rect>
</clipPath>
</defs>
</svg>
