<svg xmlns="http://www.w3.org/2000/svg" fill="none" viewBox="0 0 350 414" height="414" width="350">
<g clip-path="url(#clip0_124_1210)">
<path fill="#FFA7AF" d="M340.655 112.486L338.566 112.297L337.693 110.779L336.211 77.8452L337.351 76.2137H338.072L333.818 32.125L330.703 26.4716L325.689 24.0054L290.249 27.2305L287.817 30.0002L288.235 30.3417L286.678 32.1629L285.614 39.4858L291.54 80.8806H298.491L299.669 81.7533L303.733 116.964L303.088 117.988L297.504 120.265L298.757 131.951L299.973 135.973L302.062 138.515L339.022 131.306L340.314 130.585L342.137 125.463L340.769 112.411L340.655 112.486ZM289.983 37.9681L291.426 34.705L294.997 33.3012L298.567 35.8433V39.5616L295.756 42.597L291.616 41.6864L289.945 37.9301L289.983 37.9681ZM298.871 54.5488L295.187 54.2452L292.566 51.2099L293.819 46.8086L297.466 45.5186L301.416 47.2259L301.948 51.5893L298.833 54.5108L298.871 54.5488ZM310.913 44.2665L307.608 46.2395L303.657 44.3044L303.05 40.624L305.329 37.1713L309.545 37.3989L311.786 40.8517L310.875 44.3044L310.913 44.2665Z"></path>
<path fill="#FFD2D5" d="M115.173 249.23V258.601L127.784 260.688L137.546 261.106L138.192 238.72L135.533 238.492L115.173 249.23Z"></path>
<path fill="#FFA7AF" d="M171.087 105.201L164.668 99.8136L157.527 96.3608L152.133 96.8541L159.046 101.597L159.122 102.659L158.476 103.57L145.675 98.865L140.623 99.0927L137.052 100.914L144.46 105.96L143.738 106.567L143.092 107.212L133.558 105.315L127.746 105.543L122.428 112.221L116.92 122.882L136.217 112.486L171.087 105.201Z"></path>
<path fill="#FFA7AF" d="M202.844 182.034L205.047 189.926L211.504 186.853L206.49 179.226V168.299L205.237 168.337L203.223 174.635L202.844 182.034Z"></path>
<path fill="#FFA7AF" d="M216.442 200.55L202.995 204.382L199.159 203.548L197.715 202.03L197.297 205.596L196.196 205.483L194.942 199.981L195.322 197.022L192.625 198.236L193.917 195.162L202.426 190.078L201.514 188.522L187.307 194.707L187.611 206.849L186.661 207.494L184.724 196.035L177.659 200.285L178.533 212.426L177.697 212.843L175.494 201.612L169.226 205.369L171.239 216.106L170.48 216.524L167.441 209.201L166.947 206.697L153.082 199.45L150.537 202.22L164.288 211.743L173.215 224.985L205.236 221.456H217.202L219.709 213.45L215.721 204.382L216.442 200.474V200.55ZM178.457 221.418L175.038 222.101L174.582 221.912L179.292 218.952L179.71 219.18L178.419 221.418H178.457ZM185.218 217.358L181.457 218.003L180.964 217.814L186.206 214.627L186.51 214.854L185.218 217.358ZM192.967 213.071L188.333 213.83L187.839 213.564L194.031 209.694L194.487 209.96L192.929 213.071H192.967Z"></path>
<path fill="#FFA7AF" d="M231.067 199.032L227.572 193.986L221.646 196.49L220.659 202.105L226.584 200.36L227.61 200.057L231.067 199.032Z"></path>
<path fill="#FFA7AF" d="M291.198 209.201L272.167 191.064L256.289 181.882L231.675 192.278L236.689 197.363L257.429 191.216L264.456 190.988L275.738 196.718V197.628L264.418 193.227L258.189 193.531L247.629 196.907L251.009 203.13L253.25 213.83L253.478 214.93L252.757 221.304L279.309 221.228L284.665 219.483L289.983 214.55L291.198 209.201Z"></path>
<path fill="#FFA7AF" d="M134.849 158.813L133.33 156.992L131.393 158.965L132.95 160.938L134.849 158.813Z"></path>
<path fill="#FFA7AF" d="M82.8847 212.122L82.9607 211.439L84.0623 207.076L91.8493 214.512L87.0631 215.878L82.8087 216.523V222.063L89.4562 229.158L109.209 237.467L160.565 213.222L146.929 202.219L151.373 197.325L153.766 196.262L166.301 204.154L165.542 200.322L182.711 189.85L200.26 183.058L200.45 173.838L202.73 166.933L204.515 165.453H209.871L210.555 176.874L214.809 185.221L220.697 182.413L216.366 169.551H217.202L224.229 180.744L241.817 172.359L229.016 163.366L203.261 148.379L193.879 136.428L198.057 142.005L197.374 151.073L188.979 160.445L168.011 166.629L148.638 164.239L143.434 155.93L145.941 146.141L153.576 141.132L167.479 143.94L174.316 142.688L183.623 134.758L192.967 135.327L190.764 132.52L166.719 134.606L126.188 145.875L105.372 153.843L82.7708 207.152V212.198L82.8847 212.122ZM190.764 165.529L196.918 160.445L197.336 161.242L191.334 168.906L175.038 172.093L174.696 171.031L190.764 165.529ZM127.822 154.602L130.785 158.244L132.57 156.082L130.481 153.577L131.013 151.908L133.368 155.133L136.255 151.68L137.622 152.515L134.089 156.157L135.457 158.055L137.85 155.323L139.293 156.347L136.293 159.193L138.306 161.925L137.622 162.152L135.647 159.8L133.596 161.735L136.217 164.96L135.723 165.226L132.988 162.342L130.709 164.505L130.481 163.784L132.342 161.697L130.595 159.876L128.316 162.228L128.126 161.469L129.987 159.269L127.29 156.423L127.822 154.716V154.602ZM95.382 226.768L96.2937 220.659L101.46 224.681L95.382 226.768ZM97.889 213.222L99.1426 207.266L104.005 211.553L97.889 213.184V213.222ZM100.928 200.132L102.333 195.238L106.436 199.184L100.966 200.132H100.928ZM105.334 188.598L107.347 183.59L111.146 188.598H105.334ZM108.259 221.911L108.867 215.84L113.881 219.255L108.259 221.873V221.911ZM110.538 208.442L111.07 203.13L115.438 206.127L110.5 208.442H110.538ZM115.704 175.28L110.12 175.963L112.552 170.803L115.742 175.242L115.704 175.28ZM104.726 159.458L110.12 165.871L105.828 167.009L101.536 167.654L104.726 159.458ZM99.8263 171.903L105.372 178.885L101.46 179.72L96.5595 180.251L99.8263 171.903ZM94.2804 183.628L99.8263 190.343L91.0136 191.33L94.2804 183.628ZM89.0004 195.238L95.0021 201.764L90.4439 202.599L85.8856 203.13L89.0384 195.238H89.0004Z"></path>
<path fill="#FFA7AF" d="M167.327 221.76L167.023 221.912L139.939 236.178L143.852 236.595V241.528L184.344 236.747L218.19 229.121L222.976 227.489L193.119 225.212L171.505 227.337L167.327 221.76Z"></path>
<path fill="#FFD2D5" d="M237.98 246.915L214.353 255.604L176.292 258.602H143.852V262.13L141.041 264.103L139.293 264.027L148.258 288.196L151.829 297.378L178.951 295.747L173.746 281.86L174.354 280.912L175.646 281.974L200.298 297.492L195.588 294.039L200.754 292.674L200.678 297.758L205.047 300.49L209.757 298.782V303.411L214.923 306.598L220.545 304.056L220.887 310.241L226.433 313.656L232.244 310.848L232.358 317.298L237.942 320.751L247.249 316.16L256.631 306.674L235.967 279.584L231.637 267.897L233.422 262.661L231.105 258.184H232.548L234.144 260.499L237.942 249.382V246.877L237.98 246.915ZM191.676 291.232L187.649 287.665L191.752 286.717L191.676 291.27V291.232Z"></path>
<path fill="#FFD2D5" d="M134.165 293.812L128.809 266.797L127.518 292.294V295.291L133.026 295.785L133.444 298.061C134.241 298.175 134.963 298.289 135.609 298.365L134.849 295.936L134.165 293.812Z"></path>
<path fill="#FFD2D5" d="M113.729 260.498L113.463 257.691L105.676 255.87L104.233 255.338L93.2168 262.32L100.928 264.065L99.0286 266.759L95.5339 269.946L96.1037 271.274L100.396 279.583L102.029 280.722L99.0666 274.499L106.74 276.434L102.827 281.253L115.173 289.79L119.769 261.789L113.843 260.498H113.729ZM102.219 258.184L107.613 258.601L103.701 262.13L102.257 258.184H102.219ZM106.132 267.29L110.994 267.707L107.575 271.653L106.132 267.29ZM111.412 281.67L109.133 277.572L114.147 277.648L111.412 281.632V281.67Z"></path>
<path fill="#FFD2D5" d="M92.5331 262.813L94.3564 267.176L92.5331 262.813Z"></path>
<path fill="#FFD2D5" d="M42.5819 265.886L43.2277 268.201L79.6939 251.241L78.9722 249.913L46.4185 260.157L42.5819 265.886Z"></path>
<path fill="#FFD2D5" d="M63.4361 293.091L73.0844 293.205L82.0491 291.497L68.6781 288.424L68.83 287.551L87.0252 289.866L96.8255 289.145L92.4192 281.405L84.3662 262.699L84.1003 262.851L63.0182 275.675L51.6605 285.123L55.611 291.573L63.4361 293.091Z"></path>
<path fill="#FFA7AF" d="M53.9016 330.388L59.4095 332.095L64.0058 337.749L84.746 332.285L95.268 331.754L94.2804 325.835L87.1011 319.119L85.0878 320.371L76.4271 321.699L71.2991 319.802L67.0067 325.835L53.9016 330.388Z"></path>
<path fill="#FFA7AF" d="M33.0095 339.835L42.468 341.315L54.5474 340.253L59.7894 338.849L57.6242 334.448L50.4449 331.602L33.0095 337.938V339.835Z"></path>
<path fill="#FFA7AF" d="M57.4343 164.012L52.7241 165.302L51.5845 169.096L54.6234 173.839L49.7992 174.977L48.3937 179.492L52.0404 184.083L46.6084 185.373L45.5068 188.902L60.7011 196.756L72.4387 202.22L82.8088 181.958L93.4068 164.467L84.1003 163.67L66.9308 165.909V164.998L76.7311 162.57L76.5791 156.689L73.0844 157.751L62.2205 158.245L55.1172 157.524L54.3955 159.952L57.4343 164.012Z"></path>
<path fill="#FFA7AF" d="M77.3768 95.1465L68.9819 95.6777L73.5022 100.914L77.3768 95.1465Z"></path>
<path fill="#FFA7AF" d="M67.1207 95.7919L61.005 92.2633V92.0356L56.8265 95.5643L64.4237 102.052L70.4254 108.199H71.6789L72.4766 103.912L67.2346 95.7919H67.1207Z"></path>
<path fill="#FFA7AF" d="M86.1515 95.2227L78.1745 87.2549L72.4767 88.1275L72.2488 87.5205L69.5518 88.3173L63.8539 88.0137V90.6317L68.1843 93.6671H79.694V94.9951L75.4396 103.077L74.4519 108.465L75.1737 117.495H73.6922L72.5527 112.373L72.0968 112.828L72.1348 112.866L71.755 113.169L71.717 113.245V113.207L66.8168 117.115L58.1181 109.451L53.066 110.779L52.1923 109.944L55.8769 107.478L52.3443 104.329L53.066 103.456L59.7515 107.63L66.8168 113.511L69.7797 111.158L55.9909 96.2851L55.649 96.5886L50.7109 99.8137L50.369 110.741L65.8292 128.119H69.8557L78.5544 126.715L84.1383 111.5L86.1515 95.2227Z"></path>
<path fill="#FFA7AF" d="M66.323 59.2154L66.5889 82.8534L68.868 86.382L69.2859 86.4199L71.7929 85.5852L68.2223 58.7222L66.323 59.2154Z"></path>
<path fill="#FFA7AF" d="M47.1022 64.6789L59.2576 89.7966L61.0049 88.5066V86.0783L63.6639 86.1542L48.9635 63.5786L47.1022 64.6789Z"></path>
<path fill="#FFA7AF" d="M267.533 398.494L282.917 394.965L298.074 383.241L293.933 378.954L283.525 375.918L267.913 378.916L254.352 388.553L251.807 395.914L254.466 397.128L267.533 398.494Z"></path>
<path fill="#FFA7AF" d="M241.285 388.553L241.817 391.247L249.984 395.079L251.959 386.77L265.558 377.246L263.431 372.959L262.443 372.276L243.564 383.962L241.285 388.553Z"></path>
<path fill="#FFA7AF" d="M265.786 369.886L266.697 370.682L268.255 375.88L285.044 371.517L297.77 375.691L302.67 379.713L309.089 374.742L307.722 363.322L302.328 354.253L290.4 345.489L282.879 349.017L274.94 350.497L265.786 369.886Z"></path>
<path fill="#231F20" d="M193.119 135.289L183.775 134.72L174.468 142.65L167.631 143.902L153.728 141.094L146.093 146.103L143.586 155.892L148.79 164.201L168.163 166.592L189.131 160.407L197.526 151.035L198.209 141.967L194.031 136.39L193.195 135.251H193.157L193.119 135.289ZM195.436 150.58L188.599 158.472L167.745 163.329L149.93 162.039L147.081 156.461L147.916 153.046L160.869 153.767L161.515 152.819L148.524 150.466L148.828 149.138L154.83 143.788L167.403 145.913L175.836 143.826L184.8 137.262L191.562 137.869L193.765 141.057L182.901 149.783V150.732L195.436 143.447L195.626 143.713L195.436 150.466V150.58Z"></path>
<path fill="#231F20" d="M191.334 168.906L197.336 161.242L196.918 160.445L190.764 165.53L174.696 171.031L175.038 172.094L191.334 168.906Z"></path>
<path fill="#231F20" d="M247.287 337.483L260.278 345.678L273.573 335.775L273.649 335.662L259.86 337.293L247.287 337.483Z"></path>
<path fill="#231F20" d="M232.852 328.339L245.501 336.345L249.376 335.966L257.467 326.821L258.264 325.835L243.488 328.149L232.852 328.339Z"></path>
<path fill="#231F20" d="M250.933 335.813L261.341 334.789L276.156 332.095L281.664 324.127L273.079 313.655L260.848 326.707L250.933 335.813Z"></path>
<path fill="#231F20" d="M315.585 359.452L306.924 349.359L296.934 342.833L284.361 327.466L275.358 337.521L261.721 346.589L268.103 350.611L256.631 367.04L237.828 381.041L235.853 388.553L236.917 390.298L236.461 395.003L208.921 385.859L208.199 386.201L236.005 399.594L235.815 401.378L236.005 401.491L178.723 379.03L178.305 379.864L211.352 395.269L249.566 411.432L250.212 411.888L268.635 413.216L284.551 408.435L317.902 381.913L318.016 372.314L315.927 371.289L315.585 359.414V359.452ZM271.066 351.218L274.94 350.497L282.879 349.017L290.4 345.527L293.477 344.085L305.253 352.508L312.318 361.88L313.192 371.631L309.127 374.78L302.708 379.751L297.808 375.729L285.082 371.593L268.293 375.956L266.697 370.758L265.786 369.962L261.645 366.281L271.104 351.294L271.066 351.218ZM251.807 395.914L254.352 388.553L267.913 378.916L283.525 375.88L293.933 378.916L298.036 383.241L282.879 394.927L267.495 398.456L254.428 397.128L251.769 395.876L251.807 395.914ZM239.614 382.217L258.834 369.848L262.443 372.314L263.431 372.997L265.558 377.284L251.959 386.808L249.984 395.117L241.779 391.285L240.297 390.602L238.816 387.718L239.538 382.255L239.614 382.217ZM283.487 405.02L268.179 408.662L251.617 408.207L239.5 400.467L239.234 391.589L242.235 393.334L253.44 399.784L267.723 400.505L283.791 397.697L314.483 374.666L314.749 381.572L283.525 405.058L283.487 405.02Z"></path>
<path fill="#231F20" d="M57.5483 303.449L62.4865 310.847L75.5535 311.113L82.7708 305.346L73.1984 305.08L57.5483 303.449Z"></path>
<path fill="#231F20" d="M73.5403 302.994L74.6799 303.07L89.9121 302.387L87.8229 295.937L73.5403 302.994Z"></path>
<path fill="#231F20" d="M102.865 331.374L102.257 324.507L93.6727 314.3L92.913 311.91L77.1109 313.542L63.5501 312.479L66.6649 317.184L61.6508 322.458L30.3886 334.789L29.5149 338.09L13.9788 333.044L12.8772 333.461L28.2614 340.367L27.9575 345.185L1.02564 334.562L-0.0379639 334.865L27.6536 348.79L27.7296 348.638V348.79L42.1261 352.736L56.2188 352.812L87.633 343.971L103.739 342.112L105.638 340.443L105.714 332.702L103.017 331.412H102.827L102.865 331.374ZM63.1702 324.697L69.5138 319.119L71.2991 319.764L76.4652 321.661L85.0879 320.333L87.1392 319.081L91.0517 316.653L99.4085 325.873L100.434 331.45L95.3061 331.716L84.784 332.247L64.0439 337.711L59.4856 332.057L53.9397 330.35L50.559 329.288L63.2082 324.621L63.1702 324.697ZM47.5201 330.464L50.445 331.602L57.6243 334.448L59.8275 338.849L54.5475 340.253L42.468 341.315L33.0096 339.874V335.814L47.5581 330.464H47.5201ZM86.3415 340.746L56.2188 349.018H41.9742L30.6924 347.31L30.8444 341.391L42.6959 343.099H54.8513L86.4554 334.144L101.498 333.537L101.802 339.266L86.3035 340.784L86.3415 340.746Z"></path>
<path fill="#231F20" d="M77.4907 311.151L92.2292 309.709L90.8997 305.574L86.3794 305.46L77.2628 311.151H77.4907Z"></path>
<path fill="#231F20" d="M82.5428 142.612L70.9952 135.972L66.9307 137.452L53.2179 142.233L52.1923 145.268H67.7284L82.5428 142.612Z"></path>
<path fill="#231F20" d="M51.6606 146.862L49.8752 152.288L49.4574 153.616L64.9935 147.507L51.6606 146.862Z"></path>
<path fill="#231F20" d="M92.4572 95.7918L92.0013 93.2876L80.5676 84.2195H76.997L71.9449 57.015L69.5518 55.4214L63.3981 57.0529L63.626 78.3384L52.4203 60.8092L49.1915 60.1262L43.3417 63.6169L56.8646 91.5423L54.0157 93.667L44.9371 100.193L43.5316 102.432L44.7092 113.283L58.346 126.449L53.5978 140.715L67.8045 134.948L81.8591 128.536L88.9625 111.348L92.3432 95.8677L92.4572 95.7918ZM69.3999 58.7224L74.262 84.8265L71.7929 85.6233L69.2859 86.4201H68.8301L66.5889 82.8535L66.323 59.2156L68.2223 58.7224L69.096 58.4947L69.4378 58.7224H69.3999ZM49.7613 63.0857L50.7109 63.2754L65.3734 86.2304L63.626 86.1545L60.967 86.0407V88.469L59.2197 89.759L47.0643 64.6413L48.9256 63.541L49.7233 63.0478L49.7613 63.0857ZM72.4387 103.911L71.679 108.199H70.4255L64.4237 102.09L56.8266 95.6021L61.005 92.0355V92.2632L67.1207 95.7918H67.2347L72.4767 103.911H72.4387ZM68.982 95.678L77.3768 95.1468L73.5023 100.914L68.982 95.678ZM85.8097 111.955L80.6816 126.373L78.5164 126.715L69.8177 128.118H62.6384L62.7524 127.815L47.672 111.576V101.787L50.6729 99.8137L55.6111 96.5886L55.9529 96.323L69.7417 111.158L66.7788 113.511L59.7515 107.668L53.028 103.456L52.3063 104.367L55.8769 107.516L52.1923 109.982L53.066 110.817L58.1561 109.489L66.8168 117.153L71.717 113.245L71.755 113.207L72.1348 112.904L72.5906 112.41L73.7302 117.533H75.2117L74.4899 108.502L75.4396 103.077L79.694 95.033V93.705H68.1843L63.8539 90.6317V88.0516L69.5518 88.3172L72.2868 87.5584L77.7567 86.0027L79.9219 86.3822L88.4307 94.9571L85.8476 111.993L85.8097 111.955Z"></path>
<path fill="#231F20" d="M72.7046 135.365L82.4289 139.463L82.125 131.951L72.7046 135.365Z"></path>
<path fill="#231F20" d="M350 112.107L348.518 77.3899L347.607 76.2137H343.77L340.959 29.6967L335.831 22.8292L329.716 21.0459L283.563 26.0922L277.181 30.4176L274.674 36.5642L283.335 82.9295L281.36 83.4986L280.486 85.0922L283.639 117.457L285.538 119.62L289.223 120.075L290.249 135.138L293.667 139.729L298.529 141.626L310.191 139.805L250.591 168.185L233.422 157.258L208.01 145.23L201.932 134.531L203.413 132.027L200.146 123.034L190.346 122.465L174.316 123.072V122.465L189.435 120.075L198.969 119.771L197.601 116.015L184.724 114.991L184.61 114.497L196.728 113.549L194.411 107.137L189.435 104.708H180.356L168.922 94.7674L158.476 90.9353L148.866 94.388L146.511 92.7944L139.787 93.0221L137.318 95.2227L133.634 87.4067L127.556 79.6665L123.074 80.5391L118.477 84.6748L117.072 88.2414L126.074 94.4639L131.924 99.8137L125.998 99.7379L117.034 107.63L110.5 123.907L113.159 122.465L119.693 109.565L126.986 103.001L135.229 102.432L143.7 106.302L144.421 105.695L137.052 100.648L135.875 99.8517L141.307 96.0575L146.017 95.9057L159.084 102.432L159.008 101.331L152.095 96.5887L150.651 95.6022L157.716 93.8568L166.035 96.9301L176.633 104.632H172.455L170.973 104.936L136.103 112.259L116.806 122.655L114.869 123.717L112.514 125.007L111.488 125.576L109.285 126.753L107.499 127.701L102.333 132.861L94.8882 154.83L96.3696 158.358L94.7742 162.115L83.6064 160.635L83.1886 160.749L82.5808 145.23L67.6144 147.469L55.9528 153.464L48.4317 156.689L39.619 186.208L40.5307 189.054L60.0173 200.436L75.6674 207.873L75.7434 222.215L85.4297 232.649L84.8599 233.294L75.7814 225.706V231.283L85.6576 241.034L84.822 241.869L75.7814 235.191V244.297L76.9969 246.384L40.2648 254.997L35.0607 266.569L36.96 270.933L19.8665 278.901L20.2083 286.489L22.7534 290.549L27.0457 292.825L44.4052 283.643L56.5606 301.893L71.1851 302.728L86.6833 292.446L87.5949 292.636L112.931 291.991L114.489 293.015V293.205L111.982 324.583L119.997 334.941L127.442 341.467V298.479L133.634 299.351L133.368 297.872L132.95 295.595L127.442 295.102V292.104L128.733 266.607L134.089 293.622L134.773 295.747L135.533 298.175L136.027 299.693L144.346 325.835L149.512 337.028L160.603 319.954L153.424 301.552L190.232 297.568L201.704 308.571L231.105 327.163L243.184 326.214L261.227 321.927L270.458 310.43L259.594 297.151L239.272 267.859L248.578 247.712L249.452 236.367L236.841 241.072L236.271 240.427L249.718 232.649L250.022 228.703L241.133 231.89L240.601 231.245L250.288 225.099V224.492L279.688 224.643L286.982 221.38L294.237 216.22L297.428 206.886L277.637 186.17L265.178 178.012L273.269 174.598L329.906 152.212L335.413 148.683L338.148 141.588L336.515 135.631L339.858 135.1L345.822 130.281L347.607 124.628L345.935 112.828L349.05 113.093L350 112.031V112.107ZM129.417 91.5803L123.681 86.0408L123.947 84.6369L126.796 83.9539L131.582 90.8973L133.596 95.1848L129.493 91.5424L129.417 91.5803ZM286.944 116.964L283.259 85.9269L290.856 84.8266L297.39 84.1057L301.378 115.484L295.529 116.964H286.906H286.944ZM291.692 122.2H294.883L295.529 126.297L292.224 126.639L291.692 122.2ZM298.871 139.122L294.959 137.187L293.135 133.886L292.414 128.043H295.794L296.592 133.127L298.074 136.883L300.733 138.78L298.871 139.16V139.122ZM104.84 139.122L105.752 137.414L110.766 134.683L119.807 131.154V131.761L111.146 136.542L104.575 140.943L104.84 139.122ZM102.257 147.241L102.941 145.762L118.553 139.691L118.363 140.374L102.295 148.949V147.241H102.257ZM52.8 157.296L55.0792 157.524L62.1825 158.207L73.0084 157.713L76.5411 156.651L80.7575 155.399L80.9094 161.47L76.693 162.532L66.8927 164.96V165.871L84.0622 163.632L93.3687 164.429L82.7707 181.921L72.4006 202.182L60.6631 196.718L45.4688 188.864L41.6322 186.891L52.7621 157.296H52.8ZM78.8582 209.315L100.966 156.499L101.346 155.323L105.486 153.73L126.302 145.762L166.833 134.493L190.878 132.406L196.386 131.951L206.452 146.179L230.915 159.99L246.641 170.045L241.893 172.283L224.305 180.668L217.278 169.475H216.442L220.773 182.338L214.885 185.146L210.631 176.798L209.947 165.378H204.591L202.805 166.857L200.526 173.763L200.336 182.983L182.787 189.812L165.617 200.284L166.377 204.117L153.842 196.225L151.449 197.287L147.005 202.182L160.641 213.185L109.285 237.43L89.5322 229.12L82.8467 222.025L78.9342 217.852V209.277L78.8582 209.315ZM211.39 197.287L209.757 190.344L214.885 187.953L216.48 191.52L219.025 193.948L211.428 197.325L211.39 197.287ZM102.713 281.253L106.626 276.434L98.9526 274.499L101.916 280.722L100.282 279.583L95.7998 276.472L89.1143 264.9L92.4191 262.775L94.2424 267.138L95.42 269.908L98.9146 266.721L100.814 264.027L93.1028 262.282L104.119 255.301L105.562 255.832L113.349 257.653L113.615 260.461L119.541 261.751L114.945 289.752L102.599 281.215L102.713 281.253ZM193.081 225.174L222.938 227.451L218.114 229.083L184.268 236.709L143.776 241.49V236.557L139.863 236.14L166.947 221.874L167.213 221.76L171.429 227.299L193.043 225.174H193.081ZM144.421 252.265L165.086 252.607L164.478 253.366L158.286 254.238L144.725 255.111L143.852 253.669L144.459 252.227L144.421 252.265ZM143.814 247.484L144.421 246.043L164.82 246.65L164.554 247.447L159.084 247.75L144.421 248.85L143.814 247.484ZM140.471 238.91L139.901 261.182L137.508 261.068L127.746 260.612L115.135 258.564V249.192L135.495 238.492L138.154 238.72L140.471 238.91ZM135.799 227.451L140.661 225.099V230.904L136.179 232.953L135.837 227.451H135.799ZM150.765 226.275L142.788 229.917L142.37 224.264L147.802 221.646L150.765 226.275ZM149.018 221.077L155.779 217.814L159.274 222.367L152.816 225.326L149.018 221.077ZM161.515 221.38L157.527 217.017L160.262 215.689L164.06 220.242L161.515 221.418V221.38ZM206.452 168.299L207.782 168.223V177.633L213.214 186.018L211.466 186.853L204.971 189.926L202.805 182.034L203.185 174.598L205.199 168.337L206.452 168.261V168.299ZM209.149 198.311L204.591 200.322L203.793 193.151L204.059 193L208.237 191.027L209.111 198.274L209.149 198.311ZM202.35 200.664L199.729 199.639L198.133 197.97L198.399 195.618L202.16 193.91L202.35 200.664ZM85.0499 248.737L81.5932 250.33L79.1621 243.614L85.0879 248.737H85.0499ZM43.0377 257.805L78.0985 248.471L78.9342 249.951L79.6559 251.279L43.1897 268.239L39.619 269.908L38.5554 266.607L43.1137 257.805H43.0377ZM26.248 287.855L23.2092 285.502L22.4875 280.418L105.904 241.945L134.279 228.248L133.937 234.053L105.258 247.219L26.248 287.893V287.855ZM49.6472 286.755L51.5845 285.123L62.9422 275.675L83.9863 262.851L84.2522 262.699L92.3051 281.367L96.7115 289.145L86.9112 289.866L68.754 287.551L68.5641 288.386L81.9351 291.459L72.9704 293.167L63.3221 293.053L55.497 291.535L52.5721 290.966L49.6092 286.717L49.6472 286.755ZM121.364 307.547L120.87 306.864L121.288 283.567L122.694 264.9L125.391 265.279L123.149 287.248L121.364 307.547ZM143.928 298.403L137.128 278.559L132.684 265.279H136.027L139.711 280.57L144.953 298.744L143.928 298.365V298.403ZM244.856 247.371L237.752 265.697L234.144 260.499L232.548 258.184H231.105L233.422 262.661L241.513 278.331L257.277 299.921L260.012 303.297L256.669 306.712L247.287 316.198L237.98 320.789L232.624 323.445L204.553 306.105L175.646 282.05L174.354 280.987L173.746 281.936L178.95 295.823L151.829 297.454L148.258 288.272L139.293 264.103L141.041 264.179L143.852 262.206V258.677H176.291L214.353 255.68L237.98 246.991L245.046 244.411L244.894 247.447L244.856 247.371ZM243.944 222.746H240.563L239.12 213.071L236.423 205.824L231.447 212.122L233.498 222.67L230.497 222.822L229.813 212.274L227.686 204.534L219.595 212.995L219.709 213.526L217.202 221.494H205.237L173.215 225.061L164.288 211.819L150.537 202.295L153.082 199.526L166.947 206.773L167.441 209.277L170.48 216.6L171.239 216.182L169.226 205.445L168.694 202.675L174.886 198.767L175.456 201.688L177.659 212.919L178.495 212.502L177.621 200.36L177.393 197.135L184.154 192.848L184.724 196.111L186.662 207.569L187.611 206.924L187.307 194.783L187.231 191.52L199.881 185.866L201.514 188.598L202.426 190.154L193.917 195.238L192.625 198.311L195.322 197.097L194.942 200.057L196.196 205.558L197.298 205.672L197.715 202.106L199.159 203.623L202.995 204.458L216.442 200.626L218.721 199.981L217.696 204.8L219.291 211.743L226.888 201.575L226.585 200.436L220.659 202.182L221.646 196.566L227.61 194.062L231.105 199.108L227.648 200.133L230.991 210.453L235.663 203.661L233.536 198.008L234.599 197.742L240.411 210.794L240.943 212.578L249.148 203.623L249.984 206.317L241.437 214.095L244.02 222.822L243.944 222.746ZM275.662 188.978L294.237 207.645L292.68 215.12L286.146 218.99L284.589 219.483L279.233 221.229L252.681 221.342L253.44 214.93L253.212 213.83L250.971 203.13L247.591 196.908L258.151 193.531L264.38 193.227L275.7 197.629V196.718L264.418 190.989L257.391 191.216L236.651 197.363L231.637 192.279L256.251 181.883L261.645 179.606L275.738 189.016L275.662 188.978ZM265.824 173.118L221.001 193L217.848 190.42L216.1 187.308L311.065 142.688L313.572 141.512L314.483 143.675L290.286 156.689L289.527 157.979L316.345 147.203L319.649 150.011L265.786 173.042L265.824 173.118ZM333.704 146.027L329.26 148.152H321.739L318.244 145.344L317.94 143.978L325.005 138.97L334.958 136.124L335.983 141.626L333.666 146.027H333.704ZM343.125 128.991L340.162 130.585L338.87 131.306L301.91 138.515L299.821 135.973L298.605 131.951L297.352 120.265L302.936 117.988L303.581 116.964L299.517 81.7533L298.339 80.8806H291.388L285.462 39.4858L286.526 32.1629L288.083 30.3417L287.665 30.0002L287.286 29.6967L284.665 32.125L282.613 39.2581L289.869 80.9945L285.842 82.1707L278.169 35.8054L280.144 31.442L284.361 27.7617L290.135 27.2305L325.575 24.0054L329.83 23.626L333.97 25.8266L337.047 30.9108L341.339 76.1758H337.313L336.173 77.8073L337.655 110.741L338.528 112.259L340.617 112.448L343.352 112.676L344.264 124.704L343.125 128.991ZM340.921 109.413L338.072 77.7694L345.252 78.4144L346.543 108.806L340.921 109.413Z"></path>
<path fill="#231F20" d="M294.465 100.914L292.072 86.0024L290.856 86.268L292.034 100.914L294.845 114.155H295.795L294.465 100.914Z"></path>
<path fill="#231F20" d="M298.643 39.5612V35.8429L295.035 33.3008L291.464 34.7046L289.983 37.9677L291.654 41.7239L295.794 42.5966L298.643 39.5612Z"></path>
<path fill="#231F20" d="M305.367 37.1709L303.05 40.6236L303.658 44.304L307.608 46.2391L310.913 44.2661L311.824 40.8133L309.583 37.3986L305.367 37.1709Z"></path>
<path fill="#231F20" d="M297.504 45.5186L293.857 46.8086L292.566 51.2099L295.187 54.2452L298.871 54.5488L301.986 51.6272L301.454 47.2639L297.504 45.5186Z"></path>
<path fill="#231F20" d="M97.4332 130.736L101.726 131.723L103.701 129.257L96.5216 125.121L88.4686 123.375L87.8229 135.631L93.9766 136.124L99.1806 137.452L100.168 134.227L96.4456 132.368L91.8494 130.736V130.091L97.4332 130.736Z"></path>
<path fill="#231F20" d="M106.512 117.039L108.221 120.682L109.589 118.064L108.829 112.221L106.322 106.567L101.612 107.288L94.9642 111.462L100.32 119.695L103.929 127.17L105.828 125.235L106.778 123.452L105.334 118.178L102.713 112.524L103.321 112.145L106.512 117.039Z"></path>
<path fill="#231F20" d="M51.3946 34.6289L68.944 19.4141L95.42 35.2739L80.6056 33.908L53.3699 35.2739L53.5598 36.4501L80.7195 37.2089L95.5719 37.3986L95.9518 42.5208L97.3193 53.3343L98.7248 52.9929L98.4968 33.1112L70.0836 17.0996L67.4625 17.7826L48.2798 33.7183L47.4061 47.5671L24.0449 67.1073V68.5871L50.2171 48.4398L51.3946 34.6289Z"></path>
<path fill="#231F20" d="M123.491 29.0513L100.016 30.3793V31.252L119.237 31.6693L126.188 31.252V28.8996V27.7613L119.959 22.07L111.108 14.9369L108.373 14.8989L93.2168 25.5607V27.1922L109.855 17.9343L123.491 29.0513Z"></path>
<path fill="#231F20" d="M60.6631 42.5209L59.8274 43.4315L92.4191 43.8109L93.2168 42.445L92.4191 41.0791L60.6631 42.5209Z"></path>
<path fill="#231F20" d="M89.6082 47.0742L88.8105 46.0498L73.0084 47.871L73.0464 48.8955L89.1143 48.2884L89.6082 47.0742Z"></path>
<path fill="#231F20" d="M106.664 35.805L106.132 32.2005L104.954 32.0107L104.84 35.9188L102.068 36.1085L102.409 37.057L113.235 37.2088L113.653 41.0789H111.412L101.004 41.6101V42.4448L112.134 43.2037L120.87 42.8242V41.0789H115.135V37.2468L123.833 37.3985L125.049 46.5046L127.822 48.0223L144.384 62.2127L163.3 75.0371L164.174 74.5059L158.172 69.6493L160.603 67.6005L167.669 59.8603L166.795 59.7085L159.046 65.931L156.615 68.3972L152.399 65.0204L162.427 57.8114L169.834 51.475L168.998 51.2095L161.097 55.9522L150.499 63.4648L145.485 59.4429L127.632 45.2905L126.492 35.0841L124.783 34.5529L106.664 35.805Z"></path>
<path fill="#231F20" d="M164.326 49.2369L164.896 31.2523L188.979 18.352L210.555 32.732L210.593 33.8703L172.683 35.5398L172.911 36.3745L210.668 36.6401L210.82 40.624L179.862 41.307L180.242 42.0279L210.934 43.3938L211.01 45.86L186.358 46.2774L185.864 47.0742L212.986 48.478L213.593 31.8214L200.222 22.6015L188.599 15.2407L163.604 29.5449L161.515 31.3661L161.287 47.0742L146.587 56.332L147.878 56.7873L164.326 49.2369Z"></path>
<path fill="#231F20" d="M202.312 52.4236L202.54 58.1908L222.672 59.2532L222.824 61.9091L201.97 63.1612L183.623 78.2243L184.231 78.8313L193.879 72.0397L202.692 64.9066H223.052V64.9825L242.045 82.6255L242.88 81.5632L236.119 74.1644L225.787 63.6545L223.66 51.4371L222.824 50.5645L202.844 51.513L202.35 52.4616L202.312 52.4236ZM222.292 53.3342L222.482 56.5593L203.869 56.3317L203.793 52.8789L222.292 53.3342Z"></path>
<path fill="#231F20" d="M284.057 177.785L284.551 178.923L338.262 179.226L339.098 177.329L338.148 175.432L284.057 177.785Z"></path>
<path fill="#231F20" d="M293.325 188.598V189.584L315.851 190.95L335.186 191.406L335.983 190.002L335.262 188.143L293.325 188.598Z"></path>
<path fill="#231F20" d="M254.96 249.268L249.528 264.9H250.515L257.619 250.254L258.872 234.584L257.809 233.939L254.96 249.268Z"></path>
<path fill="#231F20" d="M262.747 251.544V245.929H261.797L260.62 251.316L257.923 260.612H258.872L262.747 251.544Z"></path>
<path fill="#231F20" d="M267.533 291.763L292.794 328.149H294.389L295.111 326.48L269.015 291.687L267.533 291.763Z"></path>
<path fill="#231F20" d="M301.758 326.062L302.328 323.937L277.713 290.814H276.498L299.669 326.214L301.758 326.062Z"></path>
<path fill="#231F20" d="M192.815 354.86L228.104 372.39L231.143 371.517V369.278L193.727 354.253L192.815 354.86Z"></path>
<path fill="#231F20" d="M224.229 355.885L246.261 365.977L248.806 365.37L249.186 363.549L225.141 355.354L224.229 355.885Z"></path>
<path fill="#231F20" d="M214.391 379.902L233.27 388.553L234.637 387.567L235.055 385.783L215.493 379.409L214.391 379.902Z"></path>
<path fill="#231F20" d="M42.9997 327.959L43.5695 326.745L22.2595 320.826L21.158 321.13L40.2648 328.642L42.9997 327.959Z"></path>
<path fill="#231F20" d="M70.2735 215.461L68.6781 215.878L67.7665 226.882L69.1719 237.467L70.2355 237.24L70.2735 215.461Z"></path>
<path fill="#231F20" d="M63.664 218.193L62.4105 218.572L61.6887 225.819L62.6763 232.839H63.8159L63.664 218.193Z"></path>
<path fill="#231F20" d="M258.075 123.262L265.368 131.192L278.359 117.988L258.075 123.262Z"></path>
<path fill="#231F20" d="M255.492 111.651L274.826 99.7754L250.933 100.914L255.492 111.651Z"></path>
<path fill="#231F20" d="M272.965 79.4007L248.692 77.1621L250.136 87.9377L272.965 79.4007Z"></path>
<path fill="#231F20" d="M249.148 54.9282L248.692 64.907L270.61 61.4543L249.148 54.9282Z"></path>
<path fill="#231F20" d="M250.44 33.3008L249.718 42.1792L270.23 40.9651L250.44 33.3008Z"></path>
<path fill="#231F20" d="M259.974 9.16992L252.605 18.4657L273.079 26.5095L259.974 9.16992Z"></path>
<path fill="#231F20" d="M283.107 0.253418L273.839 1.7711L286.944 20.6663L283.107 0.253418Z"></path>
<path fill="#231F20" d="M302.746 0.253418H293.743L301.986 19.1865L302.746 0.253418Z"></path>
<path fill="#231F20" d="M315.509 1.61914L314.825 18.4654L323.03 4.80628L315.509 1.61914Z"></path>
<path fill="#231F20" d="M91.8873 214.512L84.1002 207.076L82.9607 211.401L82.8847 212.122L82.3529 216.599L82.8847 216.523L87.1011 215.878L91.8873 214.512Z"></path>
<path fill="#231F20" d="M94.9642 201.802L88.9625 195.276L85.8477 203.168L90.4059 202.599L94.9642 201.802Z"></path>
<path fill="#231F20" d="M94.2425 183.666L90.9757 191.368L99.7884 190.381L94.2425 183.666Z"></path>
<path fill="#231F20" d="M105.334 178.923L99.7884 171.941L96.5216 180.289L101.422 179.757L105.334 178.923Z"></path>
<path fill="#231F20" d="M110.082 165.909L104.688 159.497L101.498 167.692L105.79 167.047L110.082 165.909Z"></path>
<path fill="#231F20" d="M107.309 183.666L105.334 188.636H111.146L107.309 183.666Z"></path>
<path fill="#231F20" d="M100.928 200.17L106.436 199.222L102.333 195.276L100.928 200.17Z"></path>
<path fill="#231F20" d="M97.889 213.261L104.005 211.591L99.1426 207.304L97.889 213.261Z"></path>
<path fill="#231F20" d="M115.704 175.281L112.514 170.841L110.083 176.001L115.704 175.281Z"></path>
<path fill="#231F20" d="M95.3821 226.806L101.46 224.681L96.2937 220.659L95.3821 226.806Z"></path>
<path fill="#231F20" d="M108.221 221.949L113.881 219.293L108.867 215.878L108.221 221.949Z"></path>
<path fill="#231F20" d="M102.219 258.184L103.663 262.13L107.613 258.601L102.219 258.184Z"></path>
<path fill="#231F20" d="M106.132 267.29L107.613 271.653L110.994 267.707L106.132 267.29Z"></path>
<path fill="#231F20" d="M111.412 281.67L114.147 277.686L109.133 277.572L111.412 281.67Z"></path>
<path fill="#231F20" d="M110.5 208.442L115.439 206.165L111.032 203.168L110.5 208.442Z"></path>
<path fill="#231F20" d="M128.126 161.355L128.316 162.114L130.595 159.762L132.342 161.583L130.481 163.67L130.709 164.391L132.988 162.228L135.723 165.112L136.217 164.846L133.596 161.621L135.647 159.686L137.622 162.038L138.306 161.811L136.293 159.079L139.294 156.233L137.85 155.209L135.457 157.941L134.089 156.044L137.622 152.401L136.255 151.566L133.368 155.019L131.013 151.794L130.481 153.464L132.57 155.968L130.785 158.13L127.822 154.488L127.29 156.195L129.987 159.041L128.126 161.242V161.355ZM133.292 156.954L134.811 158.775L132.95 160.9L131.355 158.965L133.292 156.954Z"></path>
<path fill="#231F20" d="M174.62 221.911L175.076 222.101L178.457 221.418L179.748 219.179L179.33 218.952L174.62 221.911Z"></path>
<path fill="#231F20" d="M180.964 217.852L181.496 218.041L185.218 217.358L186.51 214.854L186.244 214.665L180.964 217.852Z"></path>
<path fill="#231F20" d="M187.877 213.564L188.371 213.83L192.967 213.071L194.525 209.959L194.069 209.694L187.877 213.564Z"></path>
<path fill="#231F20" d="M200.678 297.796L200.754 292.711L195.588 294.077L200.298 297.53L200.678 297.834V297.796Z"></path>
<path fill="#231F20" d="M209.757 304.587V303.449V298.82L205.047 300.527L204.059 300.869L209.757 304.587Z"></path>
<path fill="#231F20" d="M221.001 312.1L220.887 310.278L220.545 304.094L214.923 306.598L213.365 307.319L221.001 312.1Z"></path>
<path fill="#231F20" d="M191.714 291.231L191.752 286.716L187.649 287.665L191.714 291.231Z"></path>
<path fill="#231F20" d="M232.434 319.992L232.396 317.336L232.283 310.886L226.433 313.693L224.344 314.68L232.434 319.992Z"></path>
<path fill="#231F20" d="M51.5846 169.096L51.3567 168.792L49.0775 175.129L49.7992 174.977L54.6234 173.839L51.5846 169.096Z"></path>
<path fill="#231F20" d="M48.3937 179.492L47.748 178.695L45.3549 185.639L46.6084 185.373L52.0403 184.083L48.3937 179.492Z"></path>
<path fill="#231F20" d="M54.3955 159.952L54.1676 159.686L52.1163 165.491L52.7241 165.301L57.4343 164.011L54.3955 159.952Z"></path>
<path fill="#231F20" d="M52.4962 134.796L50.8628 134.682L46.4945 144.775L44.4432 155.285L45.5448 155.399L52.4962 134.796Z"></path>
<path fill="#231F20" d="M46.9502 135.251L45.6208 135.213L42.6199 141.853L41.3284 148.835L42.43 149.176L46.9502 135.251Z"></path>
<path fill="#231F20" d="M87.7849 55.1558L86.5693 55.4214L94.6603 66.6143L102.485 74.4683H103.549L96.6355 64.7172L87.7849 55.1558Z"></path>
<path fill="#231F20" d="M31.4522 72.3056L38.7834 65.1724L37.9097 64.0342L29.4769 70.2946L20.9681 78.1107L22.0317 78.8316L31.4522 72.3056Z"></path>
<path fill="#231F20" d="M45.5449 73.7471L38.7834 82.1702L30.3126 95.1844L30.5785 96.2847L41.2145 83.65L46.4945 74.8853L45.5449 73.7471Z"></path>
<path fill="#231F20" d="M104.651 94.9569L105.524 94.3878L90.4819 68.6251L81.8971 57.4321L80.6056 57.6598L90.5578 74.2025L104.651 94.9569Z"></path>
<path fill="#231F20" d="M153.614 84.7125L154.64 84.4848L139.977 68.663L125.201 54.207L123.985 54.3209L138.078 70.3704L153.614 84.7125Z"></path>
<path fill="#231F20" d="M221.494 69.1182H220.317L231.067 88.2789L244.286 107.895L245.008 107.326L232.738 87.1786L221.494 69.1182Z"></path>
<path fill="#231F20" d="M117.148 53.1826L125.581 66.7659L132.95 76.2894L134.887 76.4411L127.556 65.6656L118.249 53.1826H117.148Z"></path>
<path fill="#231F20" d="M207.174 89.6072L209.947 72.7988L208.731 72.9885L205.085 88.9622L201.666 107.63L202.426 107.819L207.174 89.6072Z"></path>
<path fill="#231F20" d="M203.869 68.8529L199.919 76.0619L196.88 85.1301L197.564 85.4715L201.894 76.5551L204.629 68.8149L203.869 68.8529Z"></path>
<path fill="#231F20" d="M169.834 72.4954L170.48 72.9127L175.418 64.2998L178.647 56.7494L177.887 56.7114L173.481 63.6548L169.834 72.4954Z"></path>
<path fill="#231F20" d="M267.799 142.461L261.721 137.49L253.934 131.23L241.741 138.894L226.661 129.409L223.394 127.701L212.378 135.859L212.872 136.656L222.862 131.23L232.738 136.618L241.589 141.702L253.82 134.569L261.038 139.501L267.115 143.371L267.799 142.461Z"></path>
<path fill="#231F20" d="M242.88 149.594L243.564 150.277L254.162 146.331L264 151.377L264.684 150.58L254.162 142.46L242.88 149.594Z"></path>
</g>
<defs>
<clipPath id="clip0_124_1210">
<rect transform="translate(0 0.253418)" fill="white" height="413" width="350"></rect>
</clipPath>
</defs>
</svg>
